<?xml version="1.0" encoding="UTF-8" standalone="no"?>
<!-- Generator: Adobe Illustrator 12.0.0, SVG Export Plug-In  -->
<svg
   xmlns:dc="http://purl.org/dc/elements/1.1/"
   xmlns:cc="http://creativecommons.org/ns#"
   xmlns:rdf="http://www.w3.org/1999/02/22-rdf-syntax-ns#"
   xmlns:svg="http://www.w3.org/2000/svg"
   xmlns="http://www.w3.org/2000/svg"
   xmlns:sodipodi="http://sodipodi.sourceforge.net/DTD/sodipodi-0.dtd"
   xmlns:inkscape="http://www.inkscape.org/namespaces/inkscape"
   version="1.0"
   width="400"
   height="440"
   viewBox="-0.6 -1 400 440"
   enable-background="new -0.6 -1 433 438"
   xml:space="preserve"
   id="svg3236"
   sodipodi:version="0.32"
   inkscape:version="0.46+devel r20789"
   sodipodi:docname="Globeanchor.svg"
   inkscape:output_extension="org.inkscape.output.svg.inkscape"><metadata
   id="metadata4161"><rdf:RDF><cc:Work
       rdf:about=""><dc:format>image/svg+xml</dc:format><dc:type
         rdf:resource="http://purl.org/dc/dcmitype/StillImage" /><dc:title></dc:title></cc:Work></rdf:RDF></metadata><sodipodi:namedview
   inkscape:window-height="972"
   inkscape:window-width="1280"
   inkscape:pageshadow="2"
   inkscape:pageopacity="0.0"
   guidetolerance="10.0"
   gridtolerance="10.0"
   objecttolerance="10.0"
   borderopacity="1.0"
   bordercolor="#666666"
   pagecolor="#ffffff"
   id="base"
   inkscape:zoom="0.60862844"
   inkscape:cx="26.981834"
   inkscape:cy="52.617332"
   inkscape:window-x="0"
   inkscape:window-y="0"
   inkscape:current-layer="svg3236"
   showgrid="false" />
<defs
   id="defs3238"><inkscape:perspective
   sodipodi:type="inkscape:persp3d"
   inkscape:vp_x="0 : 219 : 1"
   inkscape:vp_y="0 : 1000 : 0"
   inkscape:vp_z="433 : 219 : 1"
   inkscape:persp3d-origin="216.5 : 146 : 1"
   id="perspective466" />
</defs>











































































































































































































































































































































































































































































<path
   d="m 268.89933,9.3 c 2,0.2 3.4,-1.8 5.4,-2 -0.4,9 -3,20 -12.4,23.4 -5.8,1.2 -10.2,-2.2 -15.2,-3.4 -6.8,-1 -12.4,2.4 -19,3.2 -17.4,2.8 -34.6,-1 -51.2,-3.2 -4,0.2 -9.2,0 -11,4.4 -0.4,2.4 1,4.4 2.8,6 1.4,2.2 4.2,2 6.4,2.4 l 3.4,3 3,-1.8 11,-1.2 c 7.8,-2.4 17,-0.4 23,5 6.8,9.8 5,23.2 12.2,32.6 1.4,2.4 4.4,2.8 7,2.4 2.6,-0.4 5,-1.2 6.2,-3.8 1.4,-3.2 -1,-6 -0.8,-9.4 0,-5.8 3.8,-11 8.2,-14 9,-5.4 20,-0.6 28,3.8 11,5.4 22,12 33,17.2 l -0.2,1 c 7.8,4.4 16,8.2 24.2,12 0.8,0.4 -0.4,0.8 -0.4,1.4 9.4,4.8 20,7.4 30.2,10.8 l -1.8,1.8 1.2,1 c 7.8,2.2 16.2,3.4 24.8,4.2 0.6,0.6 1.8,0.8 1,1.8 -3,4.2 -7.2,5.2 -11.4,6.8 -3.2,4 -7.8,5 -12.4,5.8 -3.2,2 -6.4,3.2 -10.4,3.2 h -6 c -6.8,3.8 -15.4,4 -23.2,2.4 -5.2,-1.2 -10.8,-3 -16.2,-1.8 -3.8,1.4 -6.8,-1 -9.8,-2.2 l -8.8,-5.2 -8,2.8 c -2.4,2 -5.4,3.2 -9,2.8 -1.4,2 -3.4,3 -6,3 l -3.2,-0.6 c -2.2,2.4 -6,2 -9,2.2 -1.8,2 -5.2,2.2 -7.4,1.2 -1.8,1 -3.4,2 -5.4,1 -2.8,-2 -3.4,2.4 -6,2.8 0.2,2 0.8,4.2 1,6.2 8,8.4 21.4,16.2 20,29 -0.8,2.8 -3.8,4 -6.2,4.8 -1.8,-0.8 -3.2,1 -3.4,2.4 0,2.2 2.4,2.4 3.8,3.8 l 6,2.4 c 2.2,-1.8 5.2,-2.4 8.4,-2.4 l 5.2,2.2 c 2,-0.8 4.4,-1.2 6.2,-0.2 l 4.4,3.4 c 4.2,-0.2 8,2.2 10,6 h 0.8 c 0.6,-1.4 -1.2,-2.4 -2,-4 -2.8,-1.2 -4,-4.2 -5,-6.8 0.2,-1.2 0.2,-3.4 -1.4,-3.4 -2,-1 -2.4,-3.2 -3.4,-4.8 l 1.8,-5 -4.2,-9 0.2,-1 c 5.4,-4.4 11.4,-8.4 17.8,-11.8 5,3.2 9.8,7.4 14,11.8 1,1.4 2,2.8 2,4.8 3,0.8 4.4,3.8 5.8,6.2 l -0.2,2.4 14.4,19.4 c 1,0.8 1.8,0 2.4,-0.4 0.8,-2.2 -0.6,-4.4 -0.2,-7 -0.2,-4.2 1,-8.2 2,-12.2 -2.2,-2.4 -3.4,-5.4 -3.4,-9.2 0.2,-2.2 0.8,-4.4 2.4,-6 1.4,-1.4 3.8,-1.8 5.8,-1.2 1.2,-2 3,-4.2 5.4,-4.2 l 4,0.4 c 3.2,-1 7.2,-0.8 10.2,0.8 13.8,-1.8 26,4.8 33,16 6.2,10.2 4.8,25.2 -2.2,34.4 -3.8,5.8 -9.8,9.4 -15.8,11.8 -0.8,1.4 0.6,3.4 -0.2,5 -0.8,3.2 -3.2,6.8 -6.4,7.8 -0.8,2 -0.4,4.2 -1,6.2 -1.2,2 -2,4.2 -1.8,7 1.2,2.8 6.8,4.8 4.4,9 2.2,2 4.4,5 5.4,8 l -0.8,3 1.8,7 c -5.4,5.8 -12.2,9.4 -18.8,13.4 -4.2,-1 -7,-5.8 -11.8,-5.4 -2.8,-2 -3.4,-5.8 -6.8,-7 -2.2,-2.8 -1.8,-6.8 -5,-9 l -8.8,-10.4 c -2.8,0.6 -6.2,1.8 -9.2,0 -3,-1 -5.8,-4.2 -7,-7 -2.4,-0.6 -4.4,-1.8 -6.8,-2.8 l -0.6,0.4 c 6.4,18.8 7.2,41.6 1.4,61.2 l 0.2,0.6 c -3.8,11.8 -9.2,22.4 -16,33 -6.4,7.4 -13.8,15.4 -21.8,21.2 l -8.2,6 c -22.4,13.4 -53.4,18.2 -79.8,10.8 -21,-5.8 -39.4,-18.8 -53.6,-36.2 h -1.4 c -3.2,2 -6.8,3.8 -9,6.8 -0.2,4.2 4.2,5.2 6,8.4 l 2.2,4.8 0.6,5.2 c 3.2,3.8 5,9.8 3,14.4 2,3.8 3,9 1.2,13.2 l 0.8,3.8 c 8.2,3.2 17.4,4.2 27,3.8 l 0.6,-0.6 c -3.4,-7.8 -6.8,-15.4 -9,-23.4 l 1.4,0.2 c 22.4,7.8 50.2,13 74.6,6 1.4,-0.8 3.2,-1.2 5,-0.6 l 0.2,2 c -8.8,17.2 -23.8,33.4 -41,43 -10.4,6 -21,11.2 -32.2,15 v -1.4 c 2,-6.2 4.8,-12.2 5.4,-19 l -1,-0.6 c -15.8,3.8 -32.6,1.2 -48.2,-1.2 -2.4,3 -5.8,5 -9.2,5.2 -4.799997,-1.4 -9.399997,0.2 -14.799997,0 -2.2,-0.2 -4.2,-0.8 -6,-2 -4,0 -8.4,0.4 -12,-2 l -3.2,-3 c -5.4,-0.8 -11.4,-2.8 -13.8,-8 -0.2,-3.8 -5,-2.2 -7,-4.2 -2.8,-1.4 -4.8,-4.2 -5,-7.4 -3.4,-2.2 -8,-3.8 -9.8,-8 0.2,-3.2 -2.4,-4.8 -4.2,-7 -1.8,-3.2 -6,-1.4 -9,-2.2 -3.2,-3.2 2.8,-5.8 3.2,-8.8 l 0.8,-1.4 c -3.4,-3.2 -4.2,-8 -4.4,-12.4 -2.4,-3.2 -3.8,-7.4 -2.8,-11.8 1.8,-4 -0.2,-9.2 1.2,-13.4 -1,-2 -3,-4 -2.8,-6.8 -3.4000004,-4 -6.2000004,-8.2 -5.8000004,-13.8 -1.9999999,-3.8 -4.7999999,-7.4 -3.9999999,-12.4 1,-2 1.4,-4.2 3,-6 -1.2,-4.4 -1.8,-10.4 1.9999999,-14 l 1.2,-0.8 c 0.2,-4.8 2.2000004,-8.8 6.0000004,-11.8 l 1.8,-4.8 4.4,-4.2 c 1.4,-3.8 5.4,-5.4 9.4,-6 2,-2.8 5,-3.8 8.2,-3.8 l 3.8,0.2 5.8,-0.6 c 1,-1.4 2.8,-3 2.2,-4.4 -5.8,-0.8 -11.2,0 -16.8,0.2 1,-5.2 5,-9.8 9,-14.2 15.4,-13.8 33,-24.4 53.6,-26.8 7.999997,-0.6 16.399997,-1 24.199997,1 l 0.2,0.2 c -4.2,5 -8.4,10.4 -12.2,15.8 -10.199997,15.4 -18.799997,31.6 -20.399997,50.6 -5.4,-4.8 -10.2,-10 -16.2,-13.8 -0.6,0 -1,0.4 -1,1 2.2,1.8 4.8,4.4 4.8,7.8 2.4,2.2 4.8,5 4.8,8.4 -0.2,2.8 -1,5 -2.4,7 1,3 0.6,6.4 -0.8,9 l -3.4,4.4 c -0.6,4.2 -4,8 -7.8,10.2 2.8,7.2 8.8,16.2 17.4,16.8 h 2 c -0.6,-2 -2.4,-3.4 -3,-5.4 -0.8,-2.8 -0.6,-5.4 0.4,-8 -1,-5 -1,-11.2 3.4,-14.2 0.6,-3.8 0.8,-7.2 3.4,-9.8 3.4,-2.4 2.4,-7.8 7,-9.2 1.8,-1.4 5.999997,1 6.399997,-2.2 1,-20.2 7,-39 18.2,-55 1.4,-0.2 1.4,-2.8 2.8,-3.8 10.8,-14 25,-25 40,-31.6 0.2,-1.4 -0.6,-3.2 -1.2,-5 -2.2,-0.4 -4.8,-1 -5.8,-3.4 -1.8,-7.2 5,-12.2 9,-17.4 3.4,-3.8 7.8,-6.8 11.4,-10.2 -0.2,-2.8 0.2,-5.2 0.8,-7.8 -1.4,-1.2 -4,-1.8 -5.4,-3.8 -2.2,0.6 -5.2,1 -7,-0.4 -2,-3 -6,-0.2 -8.2,-2.8 -1.4,-1.4 -3.4,0 -5.2,-0.2 -1.8,-0.6 -3.4,-1 -5.2,-2.2 -4.2,1.4 -9,0.2 -12.4,-2.4 -3.8,1 -7,-0.8 -10,-2.4 -4.4,1.4 -9.2,4.8 -14.4,2.4 -3.8,-1.2 -7.8,0 -11.199997,1 -8.2,2.2 -16.2,5 -25.4,5.2 -3.4,0.2 -6.2,-2.2 -9,-3.8 -2.8,0.2 -6,1.2 -8.8,-0.2 l -3.4,-2.8 c -5.2,1 -10,-0.8 -13.4,-4.8 -2.8,-3.4 -7.4,-3.4 -10.8,-6.8 -0.6,-1 0.2,-1.8 1.2,-2 8.4,-1.2 16.8,-4 24.8,-6.4 0.8,-0.8 -0.2,-1.2 -0.6,-1.8 l 1.2,-0.8 c 9,-2 17.8,-5.2 26,-9 0,-0.2 -0.8,-0.8 -0.2,-1.2 7.4,-2.8 14.4,-6.4 21.399997,-10.2 l 0.8,-0.8 c -0.2,-0.6 -1.2,-0.8 -0.6,-1.2 14.4,-6.4 28.6,-13.8 43.4,-20 8,-2.4 19.2,-6.8 26.4,0.6 2.8,3.4 4,8.4 2.2,13 -1.8,2.4 -3.2,5.8 -1.2,8.4 0.8,2.8 3.8,4.2 6.2,4.2 0.8,0.2 1.2,-0.4 1,-1 -1.8,-9.8 0.8,-19.2 4.4,-27.4 0,-1 -1,-0.8 -1.4,-0.8 -2.8,0.4 -2.8,5.4 -6,3.8 -1,-0.8 -0.8,-2 -1,-3.2 -5.2,-3.8 -11.2,-6 -17.2,-8 -7.4,-4 -12,-12 -11.2,-20.4 0.8,-6 6.2,-11.8 11.8,-14.8 12.8,-6 27.8,-0.8 41,0.4 15.2,1.8 30,-1.2 43.6,-4 5.2,-0.6 11,0.2 13.8,5.2 0.8,1.8 2.8,0.8 4,0.6 3.4,-1.4 3,-6 4.2,-9 2,2.2 2.4,4.8 3.4,6.8 z"
   id="path3498" /><path
   d="m 254.09933,10.3 c 3,5 -0.4,10.4 -2.8,14.8 -2.2,1 -4.8,-0.4 -7.2,-0.2 -8,1 -15,4.2 -23.4,4.2 -12,1 -22.8,-1 -34,-2.4 -7,-1.4 -17.8,-3.4 -22.8,3.2 -1,2 -1,5 0.2,7 0.6,1.8 3.4,2.8 3.2,4.4 l -5.4,2.4 c -6.4,-2.4 -12.4,-9 -12.8,-16.4 0.2,-5.4 3.2,-10.2 7.4,-13.4 13,-9.2 30.6,-2.4 45.4,-1.2 11.2,0.6 22.2,0 32.6,-2.4 6.2,-1.8 14.2,-3.8 19.6,0 z"
   id="path3500"
   style="fill:#ffffff;fill-opacity:1" /><path
   d="m 267.89933,14.3 3.8,-2.8 c 0.2,2.8 -1.2,5.4 -2,8.2 -1.4,3.4 -3.8,7.4 -7.8,9 -3,1 -6,-0.2 -8.4,-1.4 l -0.2,-0.4 c 2.2,-3.8 3.4,-8 5,-12.2 3.2,0.2 6.8,-1.4 8.2,-4.4 1,0.8 0.4,3 1.4,4 z"
   id="path3502"
   style="fill:#ffffff;fill-opacity:1" /><path
   d="m 184.09933,16.3 c 0,0.8 -0.8,1 -1.2,1 -1,0 -0.8,-1 -0.6,-1.4 0.6,-0.6 1.8,-0.4 1.8,0.4 z"
   id="path3504"
   style="fill:#ffffff;fill-opacity:1" /><path
   d="m 214.29933,46.7 c 5.8,9.4 4.8,22 10.4,31.4 -1,0.4 -2.2,-0.8 -3.4,-1.4 l -2.4,-3.8 c -1.2,1.2 -1,3.8 -2.8,5 -3.2,-2.4 1,-5.4 1.4,-8.2 l 0.4,-4 -3,-4.4 0.8,-6.8 c 0,-0.8 -1.2,-1 -1.8,-0.6 -1.4,1.2 -2.2,-2.2 -4,-1.4 -0.6,1.2 -1,3 -2.4,3.8 l -3,-2.8 c -1.2,0.4 -0.6,2.2 -1.2,3 -1.4,0.8 -2.2,3.8 -4,2.8 l -1.4,-2.2 c 1.2,-1.2 2,-3.2 1,-5 -2,-4 -8.4,-1.2 -9.2,-6.4 -1,-1.2 -2.2,0 -3.8,-0.2 0,2.2 3.2,3.8 5,5.2 2,1.2 6.2,0.6 6,3.8 -2,1.8 -3,-2.2 -5,-2 -4,0.4 -6.8,-3.4 -10.4,-1.4 l -2.8,2.4 c -0.8,-3 0,-6.4 2.2,-8.8 3.4,-2 8.2,-1.8 12,-1.2 1.8,1.8 1.4,5 4.4,5.2 1.8,0.2 3,-1.4 4.8,-1.8 1,0.6 2.2,0.2 3.2,-0.2 l 0.2,-0.2 c -2.8,-2.2 -7.2,-2 -10.2,-4.4 5,-1.4 10.2,0 14.4,2 l 4.6,2.6 z"
   id="path3506"
   style="fill:#ffffff;fill-opacity:1" /><path
   d="m 177.09933,45.9 -1,3.8 c -3.2,-1.4 -6.4,-3.2 -9.4,-5 1.8,-1.8 4.4,-3 7.2,-2 l 3.2,3.2 z"
   id="path3508"
   style="fill:#ffffff;fill-opacity:1" /><path
   d="m 275.69933,58.9 c 0.2,1.2 -1.4,1.4 -2.4,1.8 -3,1 -6,-0.2 -8.4,-2 -1.2,0.8 -2.2,3 -4.2,2.4 -2.2,0.2 -4,-2 -6,-2.2 -1.4,1.8 1.4,4.2 -1.4,5.2 -0.8,0.2 -2,0.2 -2,1.2 1,1.4 1,3 -0.2,4.4 l 1,3.2 c -1.2,1.2 -2,3 -2.4,5 -0.8,1 -2.8,0.2 -3.2,1.4 0.2,1.2 0.2,3 -1.2,3.2 -2.8,-0.8 -2,2.4 -3.8,3 -1.8,-2 -3,0.4 -4.2,1.2 -0.8,0.8 -1.4,-0.6 -2.2,-0.8 -1.2,0.8 -2.4,3.4 -4.2,1.2 -1.8,-2 -1.8,1.4 -3,1.4 l -3.8,-1.4 c -1.4,1 -3.2,4.2 -5.4,3 l -3.2,-1.4 c -1,1.2 -1.8,3.4 -3.4,4.2 l -4,-3.8 c -1.4,2 -3.8,3.2 -6,4.2 -1.8,-0.8 -3,-2.4 -4,-4.2 -2.2,0.8 -2.8,3.8 -5,4.8 -2,-1 -2.8,-3.2 -3.4,-5.2 -1,-0.2 -1.8,1 -3,0.6 -1.4,-0.2 -2.8,-1.4 -3.8,-2.4 -1.4,0.2 -3.2,2.2 -4.8,0.2 -0.2,-2.2 -2.2,-1.4 -3.8,-1.2 -1.2,-0.8 -2,-2.2 -3.8,-2.2 -0.8,-0.8 -0.8,-1.8 -1,-3 -0.8,-0.8 -2.8,-0.2 -2.8,-2 1,-1.2 0.2,-3 -1,-3.4 -0.8,-1.4 1.2,-2 0.8,-3.2 -0.8,-1.2 -3.4,-1.2 -2.4,-3.2 2,-1.2 0.8,-3 0,-4.4 0,-1.4 2.2,-2.4 1.2,-4.2 l -4.8,0.2 -4.4,-1.4 c -3.8,1.8 -9.8,3.2 -13,0 6.2,-3.4 13.8,-5.4 21.4,-5.2 2.8,0.6 5.2,1.8 7,4 1.8,2.8 2.8,6.2 1.8,9.8 l -2.8,5 c 0,3.2 1,6 3,8.4 3.2,3 8.2,3 12,1.4 1,-0.4 2.2,-1.4 3,0 1.2,-0.2 2.2,-1.4 3.4,-1.2 1,1 0.2,3.4 2,4 l 4,-2.4 c 1,0.8 1.2,2 2.2,2.4 l 2.8,-2.2 2,1.8 3.2,-3 2.8,3.2 c 1.8,-1.2 2,-3.8 3.8,-5 l 1.4,1.4 4,-3.8 c 5.2,3.8 12,6 18.2,4 2,-0.8 4.2,-2.4 4.8,-4.4 1.4,-4.8 -2.2,-9 0,-13.4 2,-6 7.2,-10.2 13.4,-10.8 7.2,-0.6 13,2.8 19.2,5.8 z"
   id="path3510"
   style="fill:#ffffff;fill-opacity:1" /><path
   d="m 188.49933,54.9 c -2.8,7.2 -4.2,16.2 -2,24 -1.2,1 -2.8,1.8 -4.2,1.8 -2.4,-9.2 0.2,-19.2 4.4,-27 0.8,0 1.8,0.2 1.8,1.2 z"
   id="path3512"
   style="fill:#ffffff;fill-opacity:1" /><path
   d="m 213.49933,57.9 c -0.2,2.4 -1.2,5.2 -3,7 -1.2,-2 -2.2,-5 -0.8,-7.4 0.8,-2.4 3,-1 3.8,0.4 z"
   id="path3514"
   style="fill:#ffffff;fill-opacity:1" /><path
   d="m 199.29933,61.9 c 0.8,2 0.2,4.4 -1.8,5.4 -3.2,-1.8 -2,-5.4 -3.2,-8.2 l -0.8,-2.2 c 2.6,0.8 3.8,3.6 5.8,5 z"
   id="path3516"
   style="fill:#ffffff;fill-opacity:1" /><path
   d="m 193.09933,65.1 c -0.8,4.2 -1.2,8.8 -4.4,11.8 -2,-6 -0.8,-13.8 1.8,-19.2 2.4,1.2 2.6,4.4 2.6,7.4 z"
   id="path3518"
   style="fill:#ffffff;fill-opacity:1" /><path
   d="m 206.69933,60.5 c 0,2.2 -1.4,4.4 -3.4,5.4 -1.4,-0.8 -2,-2.8 -1.8,-4.2 l 3.4,-3.8 c 1.6,0 1.6,1.6 1.8,2.6 z"
   id="path3520"
   style="fill:#ffffff;fill-opacity:1" /><path
   d="m 142.69933,62.1 c -5,3.4 -10.8,5.2 -16.2,7.8 0.6,1 2,0.8 3,0.8 5.2,-1.8 10.2,-4 15,-6 l 0.4,2.4 c -9.4,6 -20,9.8 -32.2,9.8 -2,-0.2 -4.2,-0.2 -5.8,-1.2 10.2,-5.8 21.2,-10.4 32,-15.4 1.4,0.2 2.8,1.2 3.8,1.8 z"
   id="path3522"
   style="fill:#ffffff;fill-opacity:1" /><path
   d="m 284.29933,63.1 c 6.2,4 13,6.8 19.2,10.8 -10.2,3.2 -21.4,-0.2 -29,-7 l 0.6,-2.8 c 3.8,1.4 7.2,5 11.4,5 -2.8,-3.2 -7,-4 -10,-7.2 l 1.4,-1.4 6.4,2.6 z"
   id="path3524"
   style="fill:#ffffff;fill-opacity:1" /><path
   d="m 161.09933,62.7 c 0.2,1.2 0.6,3 1,4.2 -0.8,1.4 -1.2,3.8 0.2,5.2 0.2,0 0.8,0.4 0.6,1 -2.4,0.4 -6.2,0.2 -8,-2 -0.2,-1.4 0.8,-3 0.2,-4.2 -2.4,0.2 -5.8,1.2 -8.2,-0.2 -0.4,-1.2 -0.2,-2.2 0.2,-3.4 2.8,-1 5.8,-0.8 8.2,-2 l 5.8,1.4 z"
   id="path3526"
   style="fill:#ffffff;fill-opacity:1" /><path
   d="m 272.69933,63.1 c 0.4,0.4 0.4,2 0,2.4 -3.2,1.8 -7.2,0.4 -10,-1.4 l -0.6,-0.6 c 0.6,-1 1.8,-1.2 2.4,-2 3,0.6 5.2,2 8.2,1.6 z"
   id="path3528"
   style="fill:#ffffff;fill-opacity:1" /><path
   d="m 263.09933,67.7 c -2.2,2 -6,2.4 -8.8,1.4 -0.8,-0.8 -0.4,-1.8 -0.8,-2.8 1.4,-1 2.2,-2.4 3,-3.8 2.6,1 4.6,3.2 6.6,5.2 z"
   id="path3530"
   style="fill:#ffffff;fill-opacity:1" /><path
   d="m 216.09933,66.5 c -0.2,2 -0.8,4.2 -2.4,5.4 -1,-1 -1.8,-2.2 -1.4,-3.8 -0.2,-1.4 1,-2.4 1.8,-3.8 1,0.2 1.4,1.4 2,2.2 z"
   id="path3532"
   style="fill:#ffffff;fill-opacity:1" /><path
   d="m 209.69933,68.1 c 0.2,2 -0.6,3.4 -1.2,5 -1.4,0.2 -2.8,-1.4 -3.8,-2.4 -1,-2.4 1.4,-3.8 2.4,-5.4 1.6,0.4 2,1.8 2.6,2.8 z"
   id="path3534"
   style="fill:#ffffff;fill-opacity:1" /><path
   d="m 202.69933,69.5 c -0.2,1.4 -0.2,3.4 -1.8,4 -1,-0.8 -2.4,-1.8 -2.2,-3.2 0.2,-1 1.2,-1.8 2,-2.4 1,-0.2 1.8,0.8 2,1.6 z"
   id="path3536"
   style="fill:#ffffff;fill-opacity:1" /><path
   d="m 268.89933,68.7 c 0.2,5 -6,3.4 -7.8,7.4 l -4.4,1.2 c 0.2,2.4 -2.4,3 -4.2,3.8 0,2 0,4.8 -2.2,5.4 -4,-0.8 -2,5 -6,5 -2,0.6 -3.8,-2.4 -5.4,-0.2 -0.8,2 -2,4.4 -4.2,5.2 -2,0.2 -4,-0.2 -5.4,-1.2 0.4,-1.8 -1.2,-4 0.8,-5.2 1.4,-0.2 1.4,1.4 1.4,2.4 0,0.6 0.2,1.4 1,1.4 2.2,-0.8 0.2,-4.2 2.4,-5 1,0.6 2.2,0.2 3.2,0 1.2,-2.8 5,-0.2 5.8,-3.4 2.2,-1 4.2,-2.4 5,-5 2.4,-0.6 2.8,-3.2 3.8,-4.8 1.4,-1 0.4,-3.8 2,-4.2 4.2,0.6 8.4,-0.2 11.4,-3.2 l 2.8,0.4 z"
   id="path3538"
   style="fill:#ffffff;fill-opacity:1" /><path
   d="m 196.69933,72.1 c -1,2.2 -3.2,5 -5.4,5.4 1.8,-2.8 2.2,-6.2 3.8,-9 1.2,1 1.4,2.4 1.6,3.6 z"
   id="path3540"
   style="fill:#ffffff;fill-opacity:1" /><path
   d="m 293.89933,77.1 v 0.4 c -7.8,3.2 -18.2,1 -25.8,-2.4 -0.6,-1.2 1.2,-1.4 1.8,-2.2 3.4,1.8 7.2,3.4 11.2,3.4 -2.8,-2.4 -7,-3 -9.8,-5.8 -0.2,-0.8 0,-1.8 1,-2 6.6,4.4 13.4,8.4 21.6,8.6 z"
   id="path3542"
   style="fill:#ffffff;fill-opacity:1" /><path
   d="m 149.29933,69.7 c -3.2,2.8 -7.2,4 -10.8,6.4 v 0.2 c 5.4,0.4 9.2,-3.4 13.8,-5.4 1,0.2 0.8,1.4 1.2,2 l -0.2,0.8 c -8.8,5.8 -21,10.2 -31.4,5.2 v -0.4 c 8.8,-2 17.2,-5 24.8,-9.4 1,-0.2 2.2,-0.2 2.6,0.6 z"
   id="path3544"
   style="fill:#ffffff;fill-opacity:1" /><path
   d="m 212.49933,74.7 c 0,2.4 -1,5 -2.4,6.4 -1,-1.2 -1.8,-3.4 -1,-5 l 2.2,-3 c 0.4,0.4 1.2,1 1.2,1.6 z"
   id="path3546"
   style="fill:#ffffff;fill-opacity:1" /><path
   d="m 206.49933,77.1 c -0.2,1.4 -1,2.8 -2.2,3.8 -1.4,-1 -1.4,-3 -1.8,-4.8 0.4,-1 1,-2 1.8,-2.4 1.2,0.4 2.8,1.8 2.2,3.4 z"
   id="path3548"
   style="fill:#ffffff;fill-opacity:1" /><path
   d="m 200.29933,75.9 c -0.6,2 2,3.8 0,5.4 h -1 c -0.8,-2 -2.8,-4.4 -1.4,-6.4 0.8,-0.8 1.8,0.2 2.4,1 z"
   id="path3550"
   style="fill:#ffffff;fill-opacity:1" /><path
   d="m 162.89933,76.1 c -0.8,1.4 -3,1.4 -4.8,1.8 -1,-0.2 -2.8,-0.6 -2.8,-1.8 -0.2,-0.8 0.2,-1.2 1,-1.4 2,1 4.8,0.2 6.6,1.4 z"
   id="path3552"
   style="fill:#ffffff;fill-opacity:1" /><path
   d="m 288.09933,81.7 c -8.4,3 -19.4,2 -27,-2.4 1.2,-0.8 1.8,-2.8 3.2,-3.4 7.2,3.8 16,5.2 23.8,5.8 z"
   id="path3554"
   style="fill:#ffffff;fill-opacity:1" /><path
   d="m 328.49933,87.1 c 0.2,1 -1,1 -1.8,1.2 -11.2,1 -21,-3.4 -30,-9 -0.2,-0.8 1.2,-1.2 1.8,-1.4 5.2,2.4 10.2,6.4 16.2,6.2 -3.8,-3.2 -9,-4 -12.8,-7 0.4,-1 2,-0.6 3,-1 8,3.6 15.6,7.2 23.6,11 z"
   id="path3556"
   style="fill:#ffffff;fill-opacity:1" /><path
   d="m 157.69933,79.9 c 0.8,1 -0.6,1.2 -1,1.8 -4.2,1 -9.4,2.8 -13.4,0 l 0.8,-0.8 c 3.2,-0.8 6,-3 9,-4.2 0.8,1.6 2.8,2.6 4.6,3.2 z"
   id="path3558"
   style="fill:#ffffff;fill-opacity:1" /><path
   d="m 106.29933,78.7 c -1.8,1.4 -4.4,2 -5.2,4.2 3.4,0.4 6,-2.2 9,-4 l 5,0.2 c -3.8,3 -8.8,5 -13,7.2 -5.199997,1.8 -11.399997,3.8 -16.799997,1.8 l 1.2,-1 c 6.2,-3 12.2,-6 18.399997,-9.4 0.6,0 1.8,0.2 1.4,1 z"
   id="path3560"
   style="fill:#ffffff;fill-opacity:1" /><path
   d="m 196.29933,79.9 c -0.2,1 -1.2,1.8 -2.2,1.8 -0.8,-1 -0.6,-3 1,-3 0.6,-0.4 1,0.6 1.2,1.2 z"
   id="path3562"
   style="fill:#ffffff;fill-opacity:1" /><path
   d="m 165.09933,81.1 1.4,1.2 c -1,0.8 -3,0.6 -4.2,0 -1,-0.4 -1.8,-1.2 -2,-2.2 0.8,-1 2.2,-1.4 3.4,-1.2 l 1.4,2.2 z"
   id="path3564"
   style="fill:#ffffff;fill-opacity:1" /><path
   d="m 121.49933,81.7 c -3.2,3 -7.8,4 -11.4,7 l 0.2,0.6 c 5.2,-0.8 10,-3.4 14.4,-6.4 1,0 2.2,0.2 2.8,0.8 -6.4,4.4 -13.8,8 -21.8,9.4 -3.8,0.2 -7.799997,0.6 -10.399997,-2 8.199997,-2.4 15.999997,-6.2 23.199997,-11 1.2,0 2.4,0.6 3,1.6 z"
   id="path3566"
   style="fill:#ffffff;fill-opacity:1" /><path
   d="m 265.69933,83.3 c -0.8,2 -2.8,1.8 -4.4,2 -2.2,-0.2 -4,-1.2 -5.8,-2.2 0.6,-1.2 2,-1.8 3,-2.8 l 7.2,3 z"
   id="path3568"
   style="fill:#ffffff;fill-opacity:1" /><path
   d="m 321.29933,90.9 c -1.2,3 -4.8,3.2 -8,3.2 -9.8,0 -17.8,-3.8 -25.4,-8.2 l -1,-1 c 4.4,-3.8 8,3.2 12.8,3.8 2,0.8 4,1.2 6,1.4 v -0.8 c -4.2,-2.4 -9.2,-3.8 -13,-7.2 0.2,-0.6 1,-1.2 1.8,-1.4 8.4,4.6 16.8,9.4 26.8,10.2 z"
   id="path3570"
   style="fill:#ffffff;fill-opacity:1" /><path
   d="m 138.29933,82.7 c -1.2,2.2 -4,3 -6,4.4 -1,0.4 -3,0.8 -3.2,2.2 5.2,0.8 8.8,-3.4 12.8,-5.8 l 3.8,1.4 c -6,4.8 -13,7.4 -20.4,9 -3,0.2 -5.8,-0.2 -7.8,-2 l 0.6,-0.8 c 5,-2.2 10,-5 14.4,-8.2 2.2,0.4 4,-0.2 5.8,-0.2 z"
   id="path3572"
   style="fill:#ffffff;fill-opacity:1" /><path
   d="m 163.89933,85.1 c -0.8,1.2 -2.4,1.8 -4,2 -2.8,0.4 -5.4,-0.2 -7.2,-2 2.4,-0.8 5.2,-3 8,-1.4 l 3.2,1.4 z"
   id="path3574"
   style="fill:#ffffff;fill-opacity:1" /><path
   d="m 281.69933,92.7 c 0.2,-0.2 0.8,-0.2 1,-0.2 -0.6,1.2 1.4,1.8 2.4,2.4 -5,3 -12.2,1.4 -17,-1.4 -2.2,-1.2 -4.2,-3 -6,-5 0.6,-1.2 2.4,-1.2 4,-1.2 2.8,2.2 6.2,4 9.8,5 v -0.8 l -8,-6 c 0.8,-2 3.2,-0.2 4.8,0 3,2.4 5.6,5.2 9,7.2 z"
   id="path3576"
   style="fill:#ffffff;fill-opacity:1" /><path
   d="m 302.89933,95.1 0.2,0.2 c -6.8,2.4 -13.4,-1 -19,-3.8 -2.8,-1.4 -5.2,-3.2 -7.4,-5.4 v -0.4 c 2.8,0.2 5.8,-1.2 8,0.4 5.6,3.8 11.6,7.2 18.2,9 z"
   id="path3578"
   style="fill:#ffffff;fill-opacity:1" /><path
   d="m 171.09933,87.1 c -0.4,1.4 -2.2,2 -3.4,2.4 -1.4,0.4 -4,0.4 -4.8,-0.8 l 5,-3.4 c 1.2,0.4 2.4,0.6 3.2,1.8 z"
   id="path3580"
   style="fill:#ffffff;fill-opacity:1" /><path
   d="m 259.49933,87.7 c 0.2,1.2 -1.2,2.2 -2.2,2.8 -1.8,0.2 -3,-0.6 -4.2,-1.4 -1,-1.2 1,-2 1.2,-3 1.6,-0.8 3.4,0.8 5.2,1.6 z"
   id="path3582"
   style="fill:#ffffff;fill-opacity:1" /><path
   d="m 150.69933,87.1 c -1.8,2.4 -5,3.8 -7.4,5.4 0.4,1.2 3,0.6 4.2,0 l 5.4,-4 c 1.4,0.2 3,0.8 4.2,1.2 -7,6 -17.2,10.4 -26.4,6.2 l -0.2,-0.4 c 3.8,-1.8 8,-3.2 11.8,-5.2 l 6.8,-4.4 c 0.6,0.2 1.2,0.4 1.6,1.2 z"
   id="path3584"
   style="fill:#ffffff;fill-opacity:1" /><path
   d="m 176.09933,89.1 c 0,1.4 -1.4,2.4 -2.4,2.8 -1.2,0.2 -2.4,0.2 -3.4,-0.4 1,-1 2.4,-3 4.2,-3.2 0.6,-0.4 1.4,0.4 1.6,0.8 z"
   id="path3586"
   style="fill:#ffffff;fill-opacity:1" /><path
   d="m 253.09933,91.9 c 0,1.4 -1.2,2.8 -2.8,3.2 -1.2,0 -2.8,-0.8 -3,-2 1,-1 1,-4.2 3.2,-3.4 l 2.6,2.2 z"
   id="path3588"
   style="fill:#ffffff;fill-opacity:1" /><path
   d="m 181.89933,90.7 c -1.2,1.8 -3,4 -5.4,3.2 -0.6,-1.2 1.4,-2.2 2,-3.4 1,0.2 3.6,-1.8 3.4,0.2 z"
   id="path3590"
   style="fill:#ffffff;fill-opacity:1" /><path
   d="m 357.49933,100.1 c -5.8,3 -14,1.8 -20.4,0.8 -5.2,-1.2 -10.4,-3.4 -15,-6.4 0.2,-1 1,-2 2,-2.2 6,3.4 12.4,5.4 19.4,6.4 v -0.2 c -5,-3.4 -11.8,-3.8 -16.8,-7.4 1.4,-1.2 4,-1.2 5.8,0 8,3.8 17,5.8 25,9 z"
   id="path3592"
   style="fill:#ffffff;fill-opacity:1" /><path
   d="m 226.69933,92.7 c 0.2,2.8 -1.2,5 -2.8,7 -1.4,-0.4 -3,-2 -3.2,-3.4 v -3.2 c 1.4,-1.2 3.2,-4 5.2,-1.8 l 0.8,1.4 z"
   id="path3594"
   style="fill:#ffffff;fill-opacity:1" /><path
   d="m 86.299333,91.1 c -2.4,2.2 -6.8,1.8 -9.2,4.4 1.4,1.2 3.4,-0.2 5.2,-0.2 l 10,-3.2 c 0.2,0.2 1.2,0.4 1,1.2 -9.4,5.2 -21.4,8 -32.6,5.2 l 22.2,-8.2 c 1,0 2.4,0.6 3.4,0.8 z"
   id="path3596"
   style="fill:#ffffff;fill-opacity:1" /><path
   d="m 166.29933,92.3 c -2.4,3.8 -6.8,6.4 -11,8 -3.2,0.8 -7,0.6 -10,-1 4.2,-2.2 9.2,-3.8 13,-7.2 2.4,-3.8 5,1 8,0.2 z"
   id="path3598"
   style="fill:#ffffff;fill-opacity:1" /><path
   d="m 272.69933,98.1 c -1,1.2 -3.2,1.2 -5.2,1.4 -4.4,-0.2 -8.2,-3.4 -11.4,-6.4 0.6,-1 2,-0.2 3,-1 1.4,-1.8 3.2,-1 4.4,0.4 2.6,2.4 6,4.4 9.2,5.6 z"
   id="path3600"
   style="fill:#ffffff;fill-opacity:1" /><path
   d="m 190.29933,96.1 c -0.6,1 -0.8,3 -2.4,2.2 -2,-1.2 -3.8,-3.8 -3.4,-6.2 1,-0.8 2.2,-0.6 3.2,-0.6 l 2.6,4.6 z"
   id="path3602"
   style="fill:#ffffff;fill-opacity:1" /><path
   d="m 218.49933,94.7 c 1,2.4 -1.2,4.8 -3,6 -1.4,-1.2 -4.4,-2.2 -3.8,-4.8 2.2,-0.8 2.8,-4.4 5.2,-3.4 l 1.6,2.2 z"
   id="path3604"
   style="fill:#ffffff;fill-opacity:1" /><path
   d="m 209.29933,95.7 c 0,2.8 -1.8,4.8 -4,6.2 -2,-0.2 -3.2,-2.2 -4.2,-3.8 0.6,-3 4,-3.4 6.2,-5.2 1.2,0.2 1.8,1.8 2,2.8 z"
   id="path3606"
   style="fill:#ffffff;fill-opacity:1" /><path
   d="m 115.49933,94.1 c -2.2,2.8 -5.8,4 -8,6.4 4.2,1.4 7,-3.2 10.4,-5 1,0 1.8,0.2 2.4,0.8 -3.8,4 -9,6.4 -13.8,9.4 -5.2,4.4 -13.799997,1.2 -19.999997,3.8 -13.2,2.2 -25,8 -38.6,8.8 -3,-0.2 -5.8,-2 -7.4,-4.2 v -0.2 c 13.8,-0.4 25.8,-5.2 38.4,-8 5.4,-1.8 11.4,1.8 16,-2 L 113.89933,93.1 c 0.8,0 1.2,0.6 1.6,1 z"
   id="path3608"
   style="fill:#ffffff;fill-opacity:1" /><path
   d="m 246.29933,95.3 c -0.2,1 -1.2,1.8 -2.2,1.8 -1.8,0.2 -3.8,-0.6 -4.4,-2 0.2,-3.8 3.8,-0.8 5.8,-1 l 0.8,1.2 z"
   id="path3610"
   style="fill:#ffffff;fill-opacity:1" /><path
   d="m 199.29933,95.7 c -0.2,2 -0.4,4.2 -2.4,5.2 -1.4,-0.6 -2.8,-2 -3.4,-3.2 1,-1.8 2.2,-4.4 4.2,-4.2 l 1.6,2.2 z"
   id="path3612"
   style="fill:#ffffff;fill-opacity:1" /><path
   d="m 174.89933,95.9 c -4,3.8 -8.4,8 -14,9 -2.4,0 -5.2,0 -7,-1.8 1.2,-0.8 3.4,-0.6 4.8,-1.8 3.8,-2 7.2,-4.4 10.2,-7.8 1.6,1.4 4.6,-0.2 6,2.4 z"
   id="path3614"
   style="fill:#ffffff;fill-opacity:1" /><path
   d="m 182.89933,98.1 c -4.4,4.8 -10,12 -17.4,9.4 -0.6,0 -1,-0.2 -1.2,-1 5,-3 10,-7 15,-11 l 3,-1.4 c 0.2,1.2 1.8,2.8 0.6,4 z"
   id="path3616"
   style="fill:#ffffff;fill-opacity:1" /><path
   d="m 104.89933,95.3 c -4,3 -8.799997,5.4 -13.399997,7.4 -3.2,1.4 -6.8,-0.6 -10.2,0.6 -13.8,2.2 -26,7.8 -40.4,8 -3.2,0 -6.2,-0.8 -8.4,-2.8 l 1,-0.6 c 8.4,-2.2 17.2,-4.2 25.2,-7.2 13.4,2.8 27,0 38,-6.4 2.2,1 5.599997,1 8.199997,1 z"
   id="path3618"
   style="fill:#ffffff;fill-opacity:1" /><path
   d="m 263.49933,101.1 c -0.2,1.4 -2,2.8 -3.4,3.2 -4,-0.6 -7.4,-3.2 -10,-6.4 1.2,-0.8 3,-1.2 4.2,-2.4 3.2,1.4 5.8,3.8 9.2,5.6 z"
   id="path3620"
   style="fill:#ffffff;fill-opacity:1" /><path
   d="m 329.49933,100.7 c 8.4,3.4 19.4,4.8 28.6,2.2 8.2,2.8 17.2,4.4 26.4,5 0,1.8 -2,2.2 -3.2,3 -8,3.8 -18.4,1.2 -26.8,-0.2 l -18.4,-4.8 c -3,0 -5.2,1.2 -8,1.2 -7.8,-2.2 -14.8,-6.2 -21.4,-10.2 0.8,-1.8 2.8,-1 4,-0.2 6,3.2 12.2,7.2 19.4,6.4 -4.8,-2 -10,-3.4 -14.4,-6.2 0.2,-0.8 1.8,-1 3,-1.2 3.6,1.2 7.2,3.4 10.8,5 z"
   id="path3622"
   style="fill:#ffffff;fill-opacity:1" /><path
   d="m 127.49933,97.1 c -1.4,2.8 -4.8,3.8 -6.8,6.2 v 0.2 c 3.8,0.2 6.2,-3 9.2,-5 0.8,0 2,0.2 2.2,1 -6.2,6.2 -14,10.2 -21.8,13.4 -3.8,1.2 -6.8,-0.6 -10.399997,-0.6 -9,1.4 -17,4.8 -26,6.4 -5.8,0.8 -11.2,3 -17.2,2 -0.6,-0.2 -0.8,-0.4 -1,-0.8 l 1.2,-1 c 12.2,-2.8 23.4,-7 36.2,-8.4 4.2,-0.2 8.799997,0 12.399997,-1.8 6.8,-3.4 13.2,-8 19.4,-12.8 1,1 2.2,0.2 2.6,1.2 z"
   id="path3624"
   style="fill:#ffffff;fill-opacity:1" /><path
   d="m 324.89933,114.1 c 5,-1.4 10.2,-0.8 15,0.8 l 20.2,5.2 v 0.6 c -8,2.8 -16.4,-0.2 -24,-2 -4.8,-1 -10,-3.8 -15.2,-2 -4.8,1.2 -8.4,-1 -12.2,-2.2 -10.2,-4 -19.2,-10.2 -29,-15.2 0.6,-0.8 2,-0.8 3,-0.6 6.2,3.4 12.8,7.2 19.8,9.2 0.4,0 1,0 1.2,-0.2 -5.2,-4.4 -12,-5.8 -17.4,-9.8 v -0.6 c 13,5 25,12.8 38.6,16.8 z"
   id="path3626"
   style="fill:#ffffff;fill-opacity:1" /><path
   d="m 239.29933,99.1 c -0.8,1 -2,1.4 -3.2,1 -0.2,-0.6 -1,-0.6 -1,-1.2 1.2,-0.8 4.2,-2.6 4.2,0.2 z"
   id="path3628"
   style="fill:#ffffff;fill-opacity:1" /><path
   d="m 229.49933,100.3 c -0.2,2 -0.2,4.2 -1.8,5.8 -1.8,0.2 -2,-1.8 -2.4,-3 0,-2 1.4,-4 3,-5.2 1.4,-0.2 1.2,1.4 1.2,2.4 z"
   id="path3630"
   style="fill:#ffffff;fill-opacity:1" /><path
   d="m 327.29933,109.1 c 4.2,0 9,-2.2 13.2,0 10.2,3 20.8,5.4 32,6 -0.2,1.2 -1.4,1.8 -2.4,2 -3.8,2 -8.8,0.8 -12.4,0 l -24,-6 c -3,-0.4 -5.8,0.6 -8.4,0.8 -10.4,-3 -19.8,-8.8 -29.4,-13.2 2,-0.2 4.4,0.2 6.4,-0.4 8.6,2.8 16,8.2 25,10.8 z"
   id="path3632"
   style="fill:#ffffff;fill-opacity:1" /><path
   d="m 252.09933,103.1 c 0.8,0.8 2.4,1.2 2,2.4 -0.8,1.8 -2.8,1.4 -4,0.8 -2.4,-1.4 -4.4,-4 -6.2,-6.2 0.4,-1 2,-1.2 3,-1.8 2,1.4 3,3.4 5.2,4.8 z"
   id="path3634"
   style="fill:#ffffff;fill-opacity:1" /><path
   d="m 187.89933,102.9 c -2.4,3 -4.2,8 -8.8,8.4 -2.2,0.6 -4,-0.4 -5.8,-1.2 l 0.2,-1 c 4.2,-2.4 8.2,-6.2 11.8,-10 1,1.2 4,1.6 2.6,3.8 z"
   id="path3636"
   style="fill:#ffffff;fill-opacity:1" /><path
   d="m 222.89933,102.3 c 0.2,2.2 0,5.2 -2,6.8 -2,-1.2 -4.8,-3 -4,-6 1,-1.2 1.8,-4.2 3.8,-3.2 l 2.2,2.4 z"
   id="path3638"
   style="fill:#ffffff;fill-opacity:1" /><path
   d="m 195.09933,103.1 c 0.6,2.2 -0.2,4 -1.8,5.2 -1.4,0.2 -2.2,-1.4 -3,-2.8 -1,-1.8 -0.2,-4.2 1,-5.8 0.8,-0.8 1.2,0.2 1.4,0.4 l 2.4,3 z"
   id="path3640"
   style="fill:#ffffff;fill-opacity:1" /><path
   d="m 276.89933,100.1 c 12.4,6 24.2,14.8 37.6,18.4 4,1 7.4,-0.4 11.8,-0.2 l 17.8,4.8 c -5.2,2.4 -12.4,2.2 -18,1.4 -6,-1 -12,-3.8 -18.4,-2 -2.8,1.2 -5,-0.4 -7.2,-1.4 l -30.2,-19 c 1.2,-1 3.2,-1.2 4.8,-2.4 l 1.8,0.4 z"
   id="path3642"
   style="fill:#ffffff;fill-opacity:1" /><path
   d="m 142.09933,100.9 c -7.2,9 -17,15.4 -27.8,18.2 -4.2,-0.8 -9.2,-2 -13.8,-0.2 -8.999997,2.2 -17.399997,5.8 -27.399997,6 -1.8,-0.4 -3.8,-0.8 -4.8,-2 6,-1.4 12.4,-3 18.4,-4.8 5.8,-1.4 11.8,-4.2 17.999997,-2.8 6.8,1.4 12,-2.8 17.4,-5.4 4.8,-2.8 9,-6.2 13.2,-9.8 2.2,0.2 4.4,-0.2 6.8,-0.2 l 0,1 z"
   id="path3644"
   style="fill:#ffffff;fill-opacity:1" /><path
   d="m 214.69933,104.7 c 0,2.4 -1.8,4 -3.8,5.4 -2.4,-1 -3.8,-3.8 -4.2,-6.2 1,-1.4 2.4,-2.2 3.4,-3.8 2.2,0.8 4.6,2 4.6,4.6 z"
   id="path3646"
   style="fill:#ffffff;fill-opacity:1" /><path
   d="m 249.49933,108.5 c 0.8,1.4 -1.2,2.2 -2.4,2.8 -3.8,-1.2 -6.2,-5.4 -8.2,-8.8 0.2,-1 1.4,-1.2 2.2,-2 2.8,2.6 5.2,5.8 8.4,8 z"
   id="path3648"
   style="fill:#ffffff;fill-opacity:1" /><path
   d="m 205.29933,105.5 c -0.2,2.4 -3.2,3.8 -5,4.8 -2,-1.8 -3.4,-4.2 -2.8,-6.8 l 2.2,-2.2 c 2.4,0.8 4.4,2.4 5.6,4.2 z"
   id="path3650"
   style="fill:#ffffff;fill-opacity:1" /><path
   d="m 147.89933,103.1 c -2.4,3.8 -6.2,6.4 -9.4,9.4 1.2,0.6 3,-0.8 4.4,-1.4 2.8,-1.4 5,-4.8 7.4,-6.8 0.4,0.2 1.2,0.4 1.4,1 -4.8,5.2 -10.2,11 -17,13 -2.8,0.8 -6,0.2 -8,-1.4 2.4,-2.4 6,-3.8 8.8,-6.4 l 9,-8.4 c 1.4,-0.2 2.8,0 3.4,1 z"
   id="path3652"
   style="fill:#ffffff;fill-opacity:1" /><path
   d="m 236.29933,102.7 c 1.8,3.2 4,6.4 7,9 0.2,0.8 -0.8,1.8 -1.4,1.4 -4.4,-1.8 -6,-6.8 -8,-10.8 l 0.2,-0.4 2.2,0.8 z"
   id="path3654"
   style="fill:#ffffff;fill-opacity:1" /><path
   d="m 267.09933,103.1 c 6.8,3.8 13.2,7.4 19.4,12.2 -0.2,1.4 -2.8,1.4 -4,2 -7.8,-0.4 -14,-6.8 -19.4,-12.2 1,-1 2.4,-3 4,-2 z"
   id="path3656"
   style="fill:#ffffff;fill-opacity:1" /><path
   d="m 237.89933,113.5 c 0.2,0.8 -0.8,1.2 -1.2,1.4 -2.8,0.6 -3,-2.8 -4,-4.2 -0.2,-2.4 -2.8,-5 -1,-7.2 2,3.4 3.6,6.8 6.2,10 z"
   id="path3658"
   style="fill:#ffffff;fill-opacity:1" /><path
   d="m 260.89933,106.5 c 5.8,4.2 11,10 17.4,12.8 -0.8,1.2 -2.4,1.2 -3.8,1.2 -7,-2 -11.2,-8.4 -16.4,-13.4 0.6,-0.6 1.8,-0.8 2.8,-0.6 z"
   id="path3660"
   style="fill:#ffffff;fill-opacity:1" /><path
   d="m 158.29933,107.1 c -1,4.8 -4.2,9 -8.2,12 -3.2,2.2 -8.2,3.4 -11.8,1.2 l -0.2,-0.2 c 6,-3.8 11.2,-8.8 16.4,-13.4 l 3.8,0.4 z"
   id="path3662"
   style="fill:#ffffff;fill-opacity:1" /><path
   d="m 226.29933,111.5 c 0.8,3.4 -3.2,1.4 -4.8,3 -0.8,0.2 -1.2,1.2 -2.2,1.4 -0.2,-0.8 -0.4,-2 0.2,-3 0.2,-0.8 1,-0.2 1.4,-0.2 l 3.8,-5 c 1.6,0.6 1.2,2.6 1.6,3.8 z"
   id="path3664"
   style="fill:#ffffff;fill-opacity:1" /><path
   d="m 164.69933,111.9 c -2,4.4 -5.4,10.4 -11,11.2 -1.4,0 -2.8,0 -3.4,-1 4.8,-3.4 8.4,-9 11.2,-14 0.8,1.2 4.8,1 3.2,3.8 z"
   id="path3666"
   style="fill:#ffffff;fill-opacity:1" /><path
   d="m 256.09933,108.5 c 4.8,4.2 9,9.4 14,12.8 0.4,1 -1,1.8 -2,2 -4.4,1 -7.4,-4.2 -10.4,-7 l -5,-6.8 c 0.8,-0.6 2.2,-1.6 3.4,-1 z"
   id="path3668"
   style="fill:#ffffff;fill-opacity:1" /><path
   d="m 229.69933,108.3 c 0,2.4 4.2,5.8 0.6,7.2 -1,0.2 -2,-0.6 -2,-1.4 1.4,-2 -1.8,-5.2 1.4,-5.8 z"
   id="path3670"
   style="fill:#ffffff;fill-opacity:1" /><path
   d="m 187.09933,112.1 -4.4,2 c -0.2,-2.4 3.2,-3.8 4.4,-5.8 0.4,1 0,2.6 0,3.8 z"
   id="path3672"
   style="fill:#ffffff;fill-opacity:1" /><path
   d="m 218.29933,110.1 c -0.4,2.2 -1.8,4.2 -3.4,6 -1.2,-0.4 -2.4,-1.2 -3.2,-2.4 1.2,-2 3,-3.4 4.8,-5.2 0.6,0 1.2,0.8 1.8,1.6 z"
   id="path3674"
   style="fill:#ffffff;fill-opacity:1" /><path
   d="m 192.09933,111.3 c 0,1 0.8,2.2 0,2.8 l -2.8,-1.4 c -0.2,-1.2 0.2,-2.2 0.6,-3.2 1,0 2,0.8 2.2,1.8 z"
   id="path3676"
   style="fill:#ffffff;fill-opacity:1" /><path
   d="m 199.69933,113.3 -2.4,4 c -1.4,0 -1.8,-2 -2.4,-3 -0.8,-1.4 -0.8,-4 1.2,-5 1.6,0.8 2.4,2.8 3.6,4 z"
   id="path3678"
   style="fill:#ffffff;fill-opacity:1" /><path
   d="m 209.29933,112.1 c -0.4,2.2 -1.8,4.2 -3.8,5.4 -2,-1 -3.2,-3.4 -3.2,-5.4 1.8,-0.8 3.4,-4.2 5.4,-2 l 1.6,2 z"
   id="path3680"
   style="fill:#ffffff;fill-opacity:1" /><path
   d="m 168.29933,110.9 c 0.6,2.8 -1.2,5 -2.2,7.2 0.8,0.8 1.4,-0.2 2.2,-0.6 1.4,-1.8 1.8,-3.8 2.4,-5.8 0.6,-0.6 1.2,0 1.4,0.8 -1.2,4.8 -4,10.4 -9.4,12.2 -1.4,0.2 -3.2,0 -4,-1.2 3.8,-3.2 7,-7.8 8.2,-12.4 0.4,-0.6 1,-0.6 1.4,-0.2 z"
   id="path3682"
   style="fill:#ffffff;fill-opacity:1" /><path
   d="m 260.69933,122.5 c 0.6,0.2 1.4,1.2 0.2,1.8 -1.4,1.2 -4,0.8 -5.8,0.2 -4.2,-2.2 -6,-7 -8.2,-10.8 1,-0.8 2.4,-0.8 3.8,-2 3.8,3.2 6,7.4 10,10.8 z"
   id="path3684"
   style="fill:#ffffff;fill-opacity:1" /><path
   d="m 175.89933,114.3 -2,6.8 c 1.8,0 2.8,-2.4 3.4,-4 0.8,-1 0.2,-3.2 1.8,-3.4 1.2,1 0.2,2.8 0,4 -1.8,4.2 -5.2,9.4 -10.2,9.8 -1,0 -2,-0.4 -2.4,-1.2 1,-1.4 3,-2.4 4,-4 2.2,-2.8 2.8,-6.2 4.4,-8.8 0.6,-0.4 1.4,0 1,0.8 z"
   id="path3686"
   style="fill:#ffffff;fill-opacity:1" /><path
   d="m 244.69933,114.5 c 2.4,3.8 4.2,8 8,11.2 -0.6,1 -1.4,1.2 -2.4,1.2 -3.2,0.2 -4.4,-3.4 -5.8,-5.4 l -3.4,-5.8 c 0.6,-0.6 2.4,-0.8 3.6,-1.2 z"
   id="path3688"
   style="fill:#ffffff;fill-opacity:1" /><path
   d="m 193.49933,118.5 c 2.8,3.2 4.2,7.2 4,11.8 l -0.2,0.2 c -2,-2.2 -3.2,-5 -5.2,-7 -1.4,0.6 -1.4,2.4 -3.2,3 -1,-2.2 -1.4,-5.2 -2.8,-7.4 l -3,1.2 c 0,-1.8 1.4,-4.2 3.4,-5 3,-0.4 5.4,1.2 7,3.2 z"
   id="path3690"
   style="fill:#ffffff;fill-opacity:1" /><path
   d="m 229.89933,119.9 c -0.2,0.8 -1.4,0.2 -2,0.6 -0.2,2.8 -0.2,5.8 -2.2,7.4 l -3.2,-3.2 -4.8,5.2 c 0,-4.8 1,-10.4 5.4,-13.4 1.2,-0.8 3,0 4.2,0.8 1.2,0.6 2.2,1.2 2.6,2.6 z"
   id="path3692"
   style="fill:#ffffff;fill-opacity:1" /><path
   d="m 212.69933,118.1 c -0.2,2 -1.8,4 -3.4,5 -1.2,-0.4 -2,-2 -2.4,-3.2 1.4,-1 3.2,-6 5.8,-2.4 l 0,0.6 z"
   id="path3694"
   style="fill:#ffffff;fill-opacity:1" /><path
   d="m 203.49933,121.3 c -0.8,1.2 -1.4,3.4 -3.4,3.4 -1.2,-1 -2,-2.4 -2,-4 0.8,-1.4 1.4,-3.4 3.2,-4.4 1,1.2 4,3 2.2,5 z"
   id="path3696"
   style="fill:#ffffff;fill-opacity:1" /><path
   d="m 244.89933,127.1 c -0.6,1.2 -2.8,1.2 -3.8,0.2 -2.8,-2.8 -4.4,-6.4 -6,-10 1.2,0.2 2.4,-1.2 3.8,-0.4 l 6,10.2 z"
   id="path3698"
   style="fill:#ffffff;fill-opacity:1" /><path
   d="m 217.69933,119.1 c -0.2,0.6 -0.2,1.2 -1,1.4 l -1.2,-1.4 c 0,-1.2 2.8,-2.2 2.2,0 z"
   id="path3700"
   style="fill:#ffffff;fill-opacity:1" /><path
   d="m 237.89933,127.3 c -0.2,1 -1.2,1.8 -2,2.2 l -0.8,-0.2 c -0.6,-4 -2.8,-7.4 -3.4,-11.4 l 0.2,-0.2 c 2.8,2.6 4,6.4 6,9.6 z"
   id="path3702"
   style="fill:#ffffff;fill-opacity:1" /><path
   d="m 179.89933,122.1 c 1,2.8 -1,5 -1.2,7.4 -1.4,0.2 -2.4,-0.6 -3.4,-1.4 v -1 c 1.8,-1.2 2.8,-3.8 4.6,-5 z"
   id="path3704"
   style="fill:#ffffff;fill-opacity:1" /><path
   d="m 215.69933,124.9 c 0,2 0,4.2 -2,5.2 -1.2,-1.2 -2.4,-3 -2.4,-4.8 0.8,-1.2 1.4,-3.4 3,-2.8 l 1.4,2.4 z"
   id="path3706"
   style="fill:#ffffff;fill-opacity:1" /><path
   d="m 186.89933,129.3 c -1,1.2 -2,2.8 -3.4,3.2 -1.8,-1.4 -2.8,-4 -1.8,-6.2 0.2,-1.4 1.8,-2.8 3,-3.8 1.6,1.6 1.6,4.4 2.2,6.8 z"
   id="path3708"
   style="fill:#ffffff;fill-opacity:1" /><path
   d="m 207.69933,125.1 c -0.2,1.8 -1.4,3.4 -2.8,4.4 -1,-0.6 -2.2,-1.2 -2.8,-2.4 l 3.2,-4.2 c 1.2,0.2 2.2,1.2 2.4,2.2 z"
   id="path3710"
   style="fill:#ffffff;fill-opacity:1" /><path
   d="m 232.69933,128.5 c 0.2,2 0,3.8 -1,5.2 h -0.8 l -3,-4.8 2.2,-6 c 2.2,1.2 2.4,3.4 2.6,5.6 z"
   id="path3712"
   style="fill:#ffffff;fill-opacity:1" /><path
   d="m 194.69933,131.7 c -0.2,1.8 -0.8,3.8 -2.4,5 -2,-1.2 -2.2,-4.2 -2.8,-6.4 0.8,-1 1.4,-3.2 3,-2.4 l 2.2,3.8 z"
   id="path3714"
   style="fill:#ffffff;fill-opacity:1" /><path
   d="m 211.29933,131.5 c -0.6,1 -1.2,2.8 -2.8,2.2 -0.8,-1 -2.4,-2.4 -0.8,-3.8 l 1.4,-1.8 c 1.4,0.8 2,2.2 2.2,3.4 z"
   id="path3716"
   style="fill:#ffffff;fill-opacity:1" /><path
   d="m 224.29933,130.1 c -0.2,3 -2,5.4 -4,7.8 -1.2,-1 -1.4,-2.8 -1.4,-4.2 0.6,-2 3,-8.4 5.4,-3.6 z"
   id="path3718"
   style="fill:#ffffff;fill-opacity:1" /><path
   d="m 201.69933,133.7 c -0.8,0.6 -1.4,0 -2,-0.8 -0.6,-1.2 -0.2,-3 0.2,-4.4 2.4,1 4.2,3.2 1.8,5.2 z"
   id="path3720"
   style="fill:#ffffff;fill-opacity:1" /><path
   d="m 229.69933,136.3 c -0.6,3.2 -2,6 -3.4,8.8 -1.8,0.6 -2,-1.8 -2.4,-3 l -0.4,-3.8 3,-6.2 c 1.2,0.6 2.4,2.6 3.2,4.2 z"
   id="path3722"
   style="fill:#ffffff;fill-opacity:1" /><path
   d="m 190.29933,138.7 c -0.6,1.4 -1.4,3 -3.2,3.2 -1,-2.4 -3.2,-5 -2,-7.8 l 2.2,-1.8 c 1.2,2 1.8,4.4 3,6.4 z"
   id="path3724"
   style="fill:#ffffff;fill-opacity:1" /><path
   d="m 197.09933,140.5 c -1,0.8 -1.4,-1 -2.2,-1.4 0.2,-2 1.4,-3.8 2.2,-5.8 1.2,2 0.6,5 0,7.2 z"
   id="path3726"
   style="fill:#ffffff;fill-opacity:1" /><path
   d="m 182.09933,135.1 c -0.8,1.4 -1.4,3.4 -2.8,4 0,-2 0,-4 1,-5.4 1,-0.2 1.6,0.8 1.8,1.4 z"
   id="path3728"
   style="fill:#ffffff;fill-opacity:1" /><path
   d="m 207.09933,135.3 c 0,1 -1,2 -1.8,2.4 -0.8,-0.2 -1.2,-0.8 -1.8,-1.8 0.2,-1 0.8,-1.8 1.2,-2.4 1.4,0 1.6,1.2 2.4,1.8 z"
   id="path3730"
   style="fill:#ffffff;fill-opacity:1" /><path
   d="m 214.29933,135.5 c 0,1.8 0,3.8 -1.8,4.8 -1.2,-0.2 -2.2,-1.4 -2.8,-2.8 0,-1.4 2,-2.2 3,-3.4 0.8,-0.4 1.4,0.6 1.6,1.4 z"
   id="path3732"
   style="fill:#ffffff;fill-opacity:1" /><path
   d="m 233.49933,139.7 c -1.8,-0.8 -1,-2.8 0,-3.8 h 0.2 c 0.2,1.2 0.8,2.8 -0.2,3.8 z"
   id="path3734"
   style="fill:#ffffff;fill-opacity:1" /><path
   d="m 204.29933,140.5 c 0,1.2 -0.8,2 -1.4,2.8 -1.2,0.4 -2.2,-1 -3.2,-1.8 0,-1.2 0,-3.2 1,-4.2 1.4,0.4 2.6,2 3.6,3.2 z"
   id="path3736"
   style="fill:#ffffff;fill-opacity:1" /><path
   d="m 217.69933,138.7 -1,2 c -1,-0.6 -0.2,-2 -0.2,-3 0.8,-0.6 1.2,0.6 1.2,1 z"
   id="path3738"
   style="fill:#ffffff;fill-opacity:1" /><path
   d="m 185.29933,144.3 c -1.2,2 -2.8,4.2 -4.8,5.2 -1.4,-1.2 -0.4,-3.8 -0.4,-5.2 0.4,-2 1.2,-4 2.8,-5.2 1.4,1.2 2,3.4 2.4,5.2 z"
   id="path3740"
   style="fill:#ffffff;fill-opacity:1" /><path
   d="m 210.49933,142.3 c -0.2,1 -0.8,2 -1.8,2.4 -1.4,-1 -2,-2.8 -2.2,-4.2 1.8,-3 3,1 4,1.8 z"
   id="path3742"
   style="fill:#ffffff;fill-opacity:1" /><path
   d="m 196.29933,147.1 c -0.2,1.2 -1.2,2.8 -2.2,3.8 -1,-1.8 -2.4,-3.4 -4,-5.2 v -2 l 2.2,-3.2 c 2.2,1.2 4,3.8 4,6.6 z"
   id="path3744"
   style="fill:#ffffff;fill-opacity:1" /><path
   d="m 232.69933,148.7 -0.2,0.6 c -1.4,-1.2 -2.8,-2.8 -3.2,-4.4 l 1.8,-3.4 c 1.6,1.6 2.2,4.8 1.6,7.2 z"
   id="path3746"
   style="fill:#ffffff;fill-opacity:1" /><path
   d="m 221.89933,144.5 c -0.4,1.4 -1.4,3 -2.8,4 -1,-1 -1,-2.4 -1,-3.8 l -0.4,-0.2 c 0.4,-0.8 1.2,-3.4 3.4,-3.2 l 0.8,3.2 z"
   id="path3748"
   style="fill:#ffffff;fill-opacity:1" /><path
   d="m 249.09933,154.1 c 3.4,3.4 6.4,8 5,13 -0.8,1.4 -2.2,2.8 -3.8,3 -2.8,0.4 -5,-1.2 -6.8,-3 -3.8,-3.8 -7.2,-8 -10,-12 0,-1.4 0.4,-2.8 1.2,-3.8 l 0.8,0.2 c 4.4,3.4 8,10 13.2,11.4 l -0.2,-1.2 -13.4,-14.2 c -0.6,-2 0.2,-4.2 1,-5.8 4.8,3.4 9.4,7.8 13,12.4 z"
   id="path3750"
   style="fill:#ffffff;fill-opacity:1" /><path
   d="m 214.49933,143.5 c 1,2.4 2.2,5 3.2,7.4 0,0.6 -0.2,0.8 -0.8,0.8 -2,-2.2 -3,-5 -4,-7.8 l 0.8,-1 0.8,0.6 z"
   id="path3752"
   style="fill:#ffffff;fill-opacity:1" /><path
   d="m 177.49933,148.3 c -5.2,5 -11.4,9.8 -14.2,16.2 0,0.4 0.8,0.2 1,0.2 4.2,-4.8 8.8,-9.8 13.8,-13.4 1.4,1.2 1,3.4 1.2,5.4 -5.2,5.2 -10.8,13.4 -19,12 -2.2,-0.8 -2,-3.8 -1.4,-5.8 4.2,-7.4 11.4,-15 19,-19.4 l -0.4,4.8 z"
   id="path3754"
   style="fill:#ffffff;fill-opacity:1" /><path
   d="m 201.29933,146.1 c -1.4,8.2 -6,15.4 -10.8,22.2 -0.4,0.4 -1.2,0.8 -1.8,0.2 -1.2,-1.2 -0.2,-3.4 0.2,-4.8 4,-1.8 6,-5.8 5.8,-10 1.8,-3 5,-5.4 3.4,-9.2 v -0.8 c 1.2,0.4 2.4,1.4 3.2,2.4 z"
   id="path3756"
   style="fill:#ffffff;fill-opacity:1" /><path
   d="m 205.69933,145.3 -0.2,0.2 -0.4,-0.8 c 0.4,0 0.6,0.4 0.6,0.6 z"
   id="path3758"
   style="fill:#ffffff;fill-opacity:1" /><path
   d="m 187.89933,145.5 c 0.4,4 -0.4,8.2 -3.4,11 -1.4,0 -1.2,-2.4 -1.4,-4 -0.2,-2.8 3.4,-4.4 4.4,-7 h 0.4 z"
   id="path3760"
   style="fill:#ffffff;fill-opacity:1" /><path
   d="m 294.69933,149.7 -11.2,6.8 c -1,0.2 -2,0 -2.4,-0.8 4.4,-3 8.8,-6.4 13.8,-8.4 v 2.4 z"
   id="path3762"
   style="fill:#ffffff;fill-opacity:1" /><path
   d="m 204.49933,149.1 c -0.8,6.4 -2.4,12.4 -5,18.4 -1.4,1 -4,0.8 -5.8,0.6 l 0.4,-1.2 c 3.8,-6 7,-12.2 9,-18.8 1,-0.8 1.4,0.2 1.4,1 z"
   id="path3764"
   style="fill:#ffffff;fill-opacity:1" /><path
   d="m 228.69933,152.1 c -0.2,0.8 -0.6,1.4 -1,2.2 -1.8,-1.2 -2,-3.4 -2.4,-5.2 1,-0.8 2.2,0.2 2.8,-1 1.4,0.4 0.8,2.6 0.6,4 z"
   id="path3766"
   style="fill:#ffffff;fill-opacity:1" /><path
   d="m 215.29933,167.7 c -1.8,0.6 -4.2,0.2 -6,-0.2 0,-6 1,-12.8 0.2,-19.2 l 0.2,-0.2 c 2.4,6.4 3.8,13.2 5.6,19.6 z"
   id="path3768"
   style="fill:#ffffff;fill-opacity:1" /><path
   d="m 224.89933,155.1 c -0.8,2 -1.8,4 -3.2,5.8 -2,-1 -3,-3.8 -3,-6.2 0.8,-2.2 2,-4.2 3.4,-5.8 h 0.4 l 2.4,6.2 z"
   id="path3770"
   style="fill:#ffffff;fill-opacity:1" /><path
   d="m 302.69933,153.1 c -0.4,0.8 -2.2,0.4 -3.2,0.2 -1.2,-1.2 -4,-2.4 -2.2,-4.4 2,0.4 3.8,2.6 5.4,4.2 z"
   id="path3772"
   style="fill:#ffffff;fill-opacity:1" /><path
   d="m 192.49933,154.5 c 0.2,2.4 -0.8,5 -3,6 l -0.4,-0.2 c -0.2,-3.4 -0.6,-7.4 1.2,-10.4 1.6,0.8 1.8,3.2 2.2,4.6 z"
   id="path3774"
   style="fill:#ffffff;fill-opacity:1" /><path
   d="m 206.49933,167.5 c -1.2,0.6 -3,0.2 -4.4,0 2,-5.4 3.4,-11.8 5,-17.4 1.2,5.2 0.4,11.8 -0.6,17.4 z"
   id="path3776"
   style="fill:#ffffff;fill-opacity:1" /><path
   d="m 359.49933,152.3 c 2,2 2.4,5 2,7.8 l -2.4,6 c -1,0.8 -2,-0.4 -3,-0.8 l -0.4,-0.8 c 1,-3 2.4,-7.8 -0.6,-10 0,2.2 0,5 -1,6.8 -2.2,-1.2 -0.4,-5 -1.4,-7 l -1.2,-3.2 c 2.2,-1.8 6,-0.8 8,1.2 z"
   id="path3778"
   style="fill:#ffffff;fill-opacity:1" /><path
   d="m 349.69933,153.1 c 0.4,1.4 1.2,2.8 1,4.4 -4,1 -2.2,-4.8 -6.2,-4.4 -0.6,1.2 1.4,2.4 0.6,3.4 -1.8,0.6 -2.8,-0.8 -3.2,-2.2 0.2,-1.8 1.8,-3.2 3.2,-3.8 2.2,-0.4 3.6,1 4.6,2.6 z"
   id="path3780"
   style="fill:#ffffff;fill-opacity:1" /><path
   d="m 218.29933,159.9 c 2,2 3.2,5 3.8,7.8 -0.8,1 -2.4,0.6 -3.4,0.8 l -0.8,-0.8 c -1.4,-5.4 -3.8,-11 -4.2,-16.8 2,2.8 3.4,5.8 4.6,9 z"
   id="path3782"
   style="fill:#ffffff;fill-opacity:1" /><path
   d="m 392.49933,169.9 c 4.2,11.4 1.2,25.2 -8,33.4 -7,6.4 -16.4,9 -26,6.8 -3.8,-1 -7.2,-2 -10.2,-4.4 3.8,-1.8 8.2,-1.2 11.2,-4.8 1.8,-1.8 3.8,0.2 5.8,-0.2 5.8,-0.6 11.4,-2.8 15,-7.8 3.8,-5 5,-12.2 2.8,-18.2 -1.2,-4.4 -5.4,-8.4 -9.4,-10.8 -1,-3.2 -3.2,-6.2 -6.2,-7.8 -2,-1 -5.2,-1.2 -5,-4.2 12.4,-1.6 24.8,6.6 30,18 z"
   id="path3784"
   style="fill:#ffffff;fill-opacity:1" /><path
   d="m 231.69933,153.3 -1.2,4.4 c -0.4,0.6 -1.2,-0.2 -1.2,-1 l 1.8,-4.4 c 0.6,-0.2 0.8,0.8 0.6,1 z"
   id="path3786"
   style="fill:#ffffff;fill-opacity:1" /><path
   d="m 296.89933,154.3 -0.2,0.8 -10.8,5.8 c -0.8,-0.2 -0.8,-1.2 -1,-1.8 3,-2.4 6.2,-4.4 9.8,-6.4 1,0 1.4,1 2.2,1.6 z"
   id="path3788"
   style="fill:#ffffff;fill-opacity:1" /><path
   d="m 341.09933,157.3 c 0.8,4.2 -0.8,8 -1.2,12.2 -0.6,0.4 -1.4,0 -1.8,-0.8 -0.2,-3 0.2,-5.8 0,-8.8 l -0.6,-0.2 c -1.4,1.4 -1.4,3.8 -2,5.8 -1.4,-0.8 -1.4,-3 -2,-4.8 0.2,-2.2 0.8,-4.4 3,-5.8 1.8,-1.2 3.8,0.6 4.6,2.4 z"
   id="path3790"
   style="fill:#ffffff;fill-opacity:1" /><path
   d="m 306.49933,157.1 -6,1 c -4.8,2.4 -9.4,5.2 -13.4,9 -1.4,1.8 -2.4,4 -4.2,5.4 -1.8,-1.2 -0.8,-3.2 0,-4.4 0.8,-3.4 4.2,-5.8 7.2,-7 5.2,-2.4 10.6,-8 16.4,-4 z"
   id="path3792"
   style="fill:#ffffff;fill-opacity:1" /><path
   d="m 369.89933,160.9 c 2.8,5.8 -1,11.2 -4.4,15.2 -1.8,0.2 -1.4,-1.8 -1.8,-2.8 0.6,-2.8 3.8,-5 2,-8.2 -1.2,1.2 -1.4,3.4 -3,4.8 -1,-0.2 -1.8,-1.2 -2,-2 1.2,-3.4 2.4,-7 3.2,-10.4 2.6,0 4.6,2 6,3.4 z"
   id="path3794"
   style="fill:#ffffff;fill-opacity:1" /><path
   d="m 228.29933,161.5 c -0.8,0.8 -1.4,0.4 -2,0 -1.4,-1 -0.8,-2.4 0,-3.4 1.2,-0.6 1.4,1.2 2.4,2 l -0.4,1.4 z"
   id="path3796"
   style="fill:#ffffff;fill-opacity:1" /><path
   d="m 186.49933,161.3 -2.4,2.4 c -0.8,-0.8 -1,-2 -0.8,-3.2 l 3,-2.4 c 1,0.6 0.8,2.4 0.2,3.2 z"
   id="path3798"
   style="fill:#ffffff;fill-opacity:1" /><path
   d="m 245.49933,171.5 c 0.2,0.6 0,1 -0.4,1 -3.8,-1.8 -8.8,-2 -10.2,-6.2 -0.8,-2.4 -2,-5.2 -1.4,-7.8 3.8,4 7,9.2 12,13 z"
   id="path3800"
   style="fill:#ffffff;fill-opacity:1" /><path
   d="m 283.69933,161.9 c -0.2,0.6 -0.2,1.2 -1,1.4 -1.2,-1.2 -1.8,-3 -2.2,-4.8 1.8,-1 2.4,2.2 3.2,3.4 z"
   id="path3802"
   style="fill:#ffffff;fill-opacity:1" /><path
   d="m 350.69933,160.7 c 5.8,5.4 -3,9.4 -2.4,15.2 -0.8,0.6 -1.4,0 -2.2,-0.2 -1.4,-2 0.4,-4 0.8,-5.8 0.8,-2 1.8,-4.4 0.2,-6.2 -1.2,3 -2.4,6.2 -3.8,9.4 -1.2,-1 -1.4,-3.2 -1.2,-4.8 l 1.2,-9.4 c 2.8,-0.8 5.4,0.2 7.4,1.8 z"
   id="path3804"
   style="fill:#ffffff;fill-opacity:1" /><path
   d="m 303.09933,161.3 c -4.2,2.8 -9,4.8 -13.4,7.2 -0.2,0 -0.8,-0.4 -0.2,-0.8 3.8,-3.2 8,-5.2 12.2,-7.8 0.6,-0.2 1.2,0.8 1.4,1.4 z"
   id="path3806"
   style="fill:#ffffff;fill-opacity:1" /><path
   d="m 177.89933,162.3 c -0.2,2 -2.2,3.4 -2.2,5.2 2.4,-0.4 3.4,-3 5.2,-4.8 1,0.4 1,2.2 0.2,3 -2.8,5.4 -10.4,2.4 -13.2,7.8 -0.2,0.6 -1,1 -1.4,1 -1,-0.8 -1.2,-2 -1.2,-3.2 4.4,-2 9,-5.2 12.4,-9 h 0.2 z"
   id="path3808"
   style="fill:#ffffff;fill-opacity:1" /><path
   d="m 231.29933,162.7 c 1,3 1.8,6.2 4.8,8.2 1.8,1.2 3.8,2 5.4,2.4 0.6,1 -0.6,2 -1.2,2.8 -1.4,1 -2.8,-0.8 -4,-1.8 -1.2,-1.2 -2.2,-3 -3.8,-3.4 -2,1.4 2.2,5.2 -1.4,5.8 l -3,-0.2 c -0.4,-1.2 0.8,-3.2 -0.2,-4.4 -3,0.8 -5.2,3.8 -9,2.4 -1,-0.8 -0.2,-2.2 0.2,-3 3,-2 9.2,0.2 9.8,-5 0,-1.4 0.8,-3 1.8,-4 l 0.6,0.2 z"
   id="path3810"
   style="fill:#ffffff;fill-opacity:1" /><path
   d="m 226.69933,164.9 c -0.2,1.2 -0.2,2.4 -1.4,3 -1.8,-0.6 -1.4,-3 -2,-4.4 1,-2.6 2.4,0.8 3.4,1.4 z"
   id="path3812"
   style="fill:#ffffff;fill-opacity:1" /><path
   d="m 312.89933,164.5 c -1,1 -3.4,0 -4.8,1 l -17.4,10.4 c -1.2,1.4 -1.2,3.8 -2,5.8 -1,0 -1.2,-1.4 -2,-2.2 0.6,-3.2 2,-5.8 3.4,-8.2 6.2,-3.4 12,-8.4 19.4,-8.2 1,0.2 3,0.2 3.4,1.4 z"
   id="path3814"
   style="fill:#ffffff;fill-opacity:1" /><path
   d="m 186.89933,168.9 c 1.2,2.8 4,3.8 7,4 0.8,0.8 -0.2,1.4 -0.6,2 l -0.8,0.2 -6.2,-3 c -1.2,1.2 0.2,3.4 -1,4.8 -1.4,-0.6 -2.8,-1.4 -4.4,-1 -0.8,-1.4 2.8,-3.8 0.2,-5.2 -1.8,1.2 -1.8,3.8 -3.8,4.8 -2,0.8 -3.8,2.2 -6,1.4 -0.6,-1.2 -3,-3.4 0,-4.2 3.4,-0.4 7.2,-1.4 10,-4 1,-1.8 3.2,-2.4 4.8,-2.4 l 0.8,2.6 z"
   id="path3816"
   style="fill:#ffffff;fill-opacity:1" /><path
   d="m 361.49933,172.5 c 1.2,3.2 0.2,7 -2,9 -1.2,0.8 -2.2,-0.8 -2.8,-1.2 -0.2,-3 2.8,-6 0.4,-8.8 l -0.4,0.6 -2.2,7.2 c -1.2,-0.2 -3.8,0.2 -4.2,-1.8 0,-4 2.2,-7.2 4.4,-10.2 2.8,0.4 5.6,2.4 6.8,5.2 z"
   id="path3818"
   style="fill:#ffffff;fill-opacity:1" /><path
   d="m 312.09933,167.5 c 6.8,7.2 11.8,15.2 17.4,23 l 0.2,3 c -6.8,-8.2 -12.8,-17.2 -19.8,-25.4 0.2,-1.2 1.4,-0.8 2.2,-0.6 z"
   id="path3820"
   style="fill:#ffffff;fill-opacity:1" /><path
   d="m 376.89933,172.9 c 0.8,4.8 -2,8.8 -5.8,11.4 -0.8,-0.6 -0.8,-1.8 -1,-2.8 1.8,-2 3.8,-4.2 3,-7 -1.2,1.4 -2.2,3.4 -4.2,4.4 -0.4,-0.4 -1.8,-1 -1,-2.2 2.4,-2.8 3.2,-6 5,-9 2.6,0.8 3.4,3.2 4,5.2 z"
   id="path3822"
   style="fill:#ffffff;fill-opacity:1" /><path
   d="m 309.09933,169.9 c 13.8,16.8 25.4,34.4 37,52.4 0.4,1.2 2.4,2.8 1.2,4 -2.8,-1.2 -6.4,-1.8 -9.2,-0.2 l -3.8,2.4 c -2.8,-1.2 -6.2,-2.2 -9.2,-1.8 -11.2,-16.2 -22,-32.6 -31.4,-49.6 l 0.4,-0.8 13,-7.8 2,1.4 z"
   id="path3824"
   style="fill:#ffffff;fill-opacity:1" /><path
   d="m 206.69933,172.5 -5,4 c -1.2,-0.2 -1.2,-2.2 -2,-3.2 1.4,-2.4 4.8,-1.4 7,-1.4 v 0.6 z"
   id="path3826"
   style="fill:#ffffff;fill-opacity:1" /><path
   d="m 343.29933,176.5 c 0.8,0.8 2,0.8 2.2,2 -1,1.8 -3.2,1.4 -4.8,3 l -4.4,4.8 c -1,-2 -1,-5 -0.8,-7.4 0,-2.2 0.2,-5 1.4,-7 3.8,-1 3.6,3.4 6.4,4.6 z"
   id="path3828"
   style="fill:#ffffff;fill-opacity:1" /><path
   d="m 381.49933,180.7 c -1,-1 -1.8,-2.4 -2.4,-3.8 0.6,-1.4 -0.2,-3.8 0.2,-5 2,2.6 2.6,5.8 2.2,8.8 z"
   id="path3830"
   style="fill:#ffffff;fill-opacity:1" /><path
   d="m 211.09933,175.9 -9,7.2 -4,-0.2 c 0.8,-1.2 2.2,-3 3.8,-1.8 0.8,-0.4 0,-1.4 0.6,-2.2 l 8.4,-6.8 c 0.8,0.8 0.4,2.6 0.2,3.8 z"
   id="path3832"
   style="fill:#ffffff;fill-opacity:1" /><path
   d="m 215.69933,174.9 c -0.4,0.8 -1.2,1.2 -2,1.4 -0.2,-1.2 0.4,-2.8 1.4,-3.4 1,0.4 1,1.6 0.6,2 z"
   id="path3834"
   style="fill:#ffffff;fill-opacity:1" /><path
   d="m 199.09933,176.7 -0.2,0.4 c -1,0 -2.2,-0.4 -3.2,-1 -0.2,-0.8 0.2,-1.4 0.8,-1.8 1,0.2 2,1.2 2.6,2.4 z"
   id="path3836"
   style="fill:#ffffff;fill-opacity:1" /><path
   d="m 245.49933,177.9 c 0,0.2 -0.2,0.8 -0.4,0.4 -1,-0.2 -2.8,-1 -2,-2.2 1.2,-1.8 2.2,0.8 2.4,1.8 z"
   id="path3838"
   style="fill:#ffffff;fill-opacity:1" /><path
   d="m 190.29933,177.3 c -0.8,1.2 -2.2,2.8 -3.8,3 0.8,-1.2 0.8,-3.2 2,-4.2 0.6,0.2 1.8,0.2 1.8,1.2 z"
   id="path3840"
   style="fill:#ffffff;fill-opacity:1" /><path
   d="m 226.29933,178.7 -5.4,4.8 c -1.8,-0.2 -3.8,0.2 -5,-0.4 2.8,-2.4 5.8,-5.4 9,-7 0.8,0.4 0.6,1.8 1.4,2.6 z"
   id="path3842"
   style="fill:#ffffff;fill-opacity:1" /><path
   d="m 168.89933,177.3 c -0.2,1 -1.4,1.2 -2.2,1.8 -0.8,-0.4 -0.2,-1.4 0,-2.2 0.4,-0.6 1.8,-0.6 2.2,0.4 z"
   id="path3844"
   style="fill:#ffffff;fill-opacity:1" /><path
   d="m 218.69933,177.5 -7.2,6 -5,-0.4 4.2,-3.8 c 1.2,-0.2 0.8,2.2 2.2,1.2 l 4.2,-3.4 c 0.6,-0.2 1.4,-0.2 1.6,0.4 z"
   id="path3846"
   style="fill:#ffffff;fill-opacity:1" /><path
   d="m 236.29933,177.9 c -0.6,0.8 -1.4,1.8 -2.4,2 l 1,-3 c 0.6,0 1,0.4 1.4,1 z"
   id="path3848"
   style="fill:#ffffff;fill-opacity:1" /><path
   d="m 179.29933,182.9 c 0.4,0.8 1.2,3 2.4,1.4 1.4,-1.2 3.4,-3.4 5,-0.8 5,3.2 -0.4,8.4 1.8,12.8 1.8,3 5.4,3 8.2,4.4 1.4,1.8 3.8,3 6,3 2.2,0 4.2,-1.4 5.2,-3.4 2,-3.2 -1.4,-6 -2.8,-8.4 1.8,-1.4 4.8,-0.6 7,-0.2 4.8,3.4 9.8,6.4 14.4,10.2 l -0.2,0.4 c -4,0.6 -8.4,0 -11,4 -2,1.4 -2.4,4.4 -1.8,7 -2.8,2.4 -4.2,5.8 -5.4,9 -2.8,2.2 -4.4,5 -5.4,8.2 -1,4 3.8,5.8 4.8,8.8 -1,1.2 -2,-0.2 -2.8,-1 -1.8,-1.8 -4,-3.8 -6.4,-3.4 -2.4,-0.2 -3.8,2 -6,1.4 -2.8,0 -5.8,0.2 -7.4,2.4 -1.2,2.8 -4,5.2 -2.8,8.8 2.2,3.2 5.8,6 9.8,5 1.2,-0.8 3,-2.2 4.4,-1.2 1,2.2 2,4.8 4.4,5.4 2,0.4 4,0.4 5.2,2.2 0.8,1.8 1.8,3.8 3.2,5.2 -1.4,0.8 -3.2,-1 -4.8,-1.4 -3,-1.4 -4.2,-6 -8.2,-6 -3,-1 -5.8,0.4 -9,0 -7.2,-2 -15.4,-2.8 -19.4,-10 -0.8,-2.4 -3,-5 -5.4,-5.8 -2,-3.4 -4.2,-9 -9,-9.2 -1.2,0.2 -1.4,1.8 -1,2.4 0.2,2 2.2,3.4 3.2,5.2 -0.2,0.8 -1.4,0.2 -2,-0.2 l -6.8,-8 -1.4,-12 c 1.4,-6 5.2,-11.2 5.2,-18 0,-2.4 -2.2,-4.2 -4.2,-5.8 l -3.8,-1 c 2.4,-3.4 6.8,-5.4 10.2,-8 3.2,-2.2 6.8,-4 10.4,-5.2 0.8,0.6 0.6,1.4 0.8,2 h 0.8 l 4.4,-3.4 c 3.2,0 5.8,-0.8 8.4,-2 1,1.8 0.8,3.8 1.8,5.2 z"
   id="path3850"
   style="fill:#ffffff;fill-opacity:1" /><path
   d="m 183.49933,179.3 c -0.2,1 -1.4,2 -2.2,2.4 -1,-0.6 -1,-1.8 -0.8,-2.8 0.6,-1.4 2.6,-1 3,0.4 z"
   id="path3852"
   style="fill:#ffffff;fill-opacity:1" /><path
   d="m 197.49933,179.5 v 0.8 c -2,2.8 -5.2,3.8 -8.4,2.8 -1,-0.8 0.2,-1.4 0.8,-2 1.8,-1.2 4,-3.8 6.4,-2 l 1.2,0.4 z"
   id="path3854"
   style="fill:#ffffff;fill-opacity:1" /><path
   d="m 368.89933,184.3 c 0.6,2.8 -1.4,4.8 -3,6.4 -0.8,0.8 -1.4,1.2 -2.4,1.2 -0.8,-3 3.8,-4.4 2.2,-7.4 -1.2,0.2 -1.8,2.8 -3.2,2.4 l -1.8,-3.4 3.2,-5 c 2.8,0.2 4.4,3.4 5,5.8 z"
   id="path3856"
   style="fill:#ffffff;fill-opacity:1" /><path
   d="m 242.69933,179.9 c 0.2,1.8 -1.8,2.8 -3,3.4 -1.8,-0.2 -3.8,0.2 -5,-0.4 1.2,-2 3.2,-3.4 5.4,-4 1.4,-0.4 1.8,0.8 2.6,1 z"
   id="path3858"
   style="fill:#ffffff;fill-opacity:1" /><path
   d="m 231.29933,179.3 c 0,0.8 -0.2,1.8 -1,1.8 -0.6,-0.2 -0.6,-1 -0.6,-1.4 0.2,-0.4 1,-0.8 1.6,-0.4 z"
   id="path3860"
   style="fill:#ffffff;fill-opacity:1" /><path
   d="m 292.29933,179.5 c 9.2,16 19.4,31.4 29.4,47 -1.8,-0.8 -4.2,-1.2 -6.4,-1.2 -1,-3.2 -0.4,-7.2 -4,-9.2 l -2.2,-1.4 c -0.4,-4.2 -2.4,-9 -7,-10.4 -0.6,-5 -2.8,-9.8 -6.8,-12.8 -1.2,-4 -7.2,-7.2 -3.8,-12 l 0.8,0 z"
   id="path3862"
   style="fill:#ffffff;fill-opacity:1" /><path
   d="m 379.89933,188.9 c -1.4,3 -4,6.2 -7.2,7 -0.8,-2.4 3,-3.4 4,-5.4 0.6,-1.4 1.2,-2.8 1.2,-4.4 h -0.4 c -1.2,2 -2.8,4 -4.8,5.2 -0.8,-1.2 -1.2,-2.8 -1,-4 2.4,-2.2 4.8,-4.4 6.2,-7 2,2.2 3.4,5.6 2,8.6 z"
   id="path3864"
   style="fill:#ffffff;fill-opacity:1" /><path
   d="m 268.49933,182.5 c 1.4,2 2,4.8 1.4,7.4 -1.2,0.2 -2.2,-1.4 -3.2,-2 -0.2,-1.8 -0.2,-3.8 -2,-4.4 -1,0.6 0,1.4 -0.6,2.2 -1,-0.2 -2.8,-0.2 -3.8,-0.8 l -1.8,-2.8 c 3,-1.8 7.4,-2.4 10,0.4 z"
   id="path3866"
   style="fill:#ffffff;fill-opacity:1" /><path
   d="m 360.49933,187.9 c 1.4,4 0.2,8.4 -2.4,11.4 -3,4 -8.8,2.2 -12.8,4.4 -2,0.2 -4.8,4 -6.2,0.2 l 0.2,-0.8 6.2,-3.8 c 4.2,-1.4 11.4,-0.4 12,-7 0,-1 0.2,-2.2 -0.6,-2.8 -1.8,1.8 -1.4,5.4 -4.8,6.2 -5.8,0 -10.2,3.4 -15,5.8 -2,-1.2 -3,-3.8 -3.8,-6 -0.6,-1.2 -1.2,-3 -0.6,-4.4 5.2,-1.8 6.4,-8.4 12,-10 6.4,-1.8 13.6,1.2 15.8,6.8 z"
   id="path3868"
   style="fill:#ffffff;fill-opacity:1" /><path
   d="m 228.29933,182.7 c -0.2,0.8 -2,0.8 -3,0.6 0.2,-1 1.2,-1.8 2,-2 0.8,-0.2 0.6,1 1,1.4 z"
   id="path3870"
   style="fill:#ffffff;fill-opacity:1" /><path
   d="m 249.69933,182.5 c -0.4,1.2 -2.8,0.8 -4.2,1 l -1.2,-0.2 c -0.2,-0.6 0.8,-1.2 1,-1.2 1,0 2.4,1 3,-0.6 0.6,0 0.8,0.4 1.4,1 z"
   id="path3872"
   style="fill:#ffffff;fill-opacity:1" /><path
   d="m 278.69933,184.9 c 2.2,3.8 1.2,8.8 -0.8,12 -0.8,0.4 -1.4,-0.2 -1.8,-0.8 -0.6,-3 1.4,-6.4 -1,-8.8 -1,1.2 -0.2,3.8 -1,5.2 0,0.2 -0.2,0.8 -0.4,0.8 -3.4,-1.4 -0.6,-6 -2,-8.8 -0.2,-0.8 -0.8,-1.4 -0.2,-2.2 2.6,-1.4 5.6,0.4 7.2,2.6 z"
   id="path3874"
   style="fill:#ffffff;fill-opacity:1" /><path
   d="m 288.09933,189.7 c 3.8,5.2 0.6,11.8 -2,16.4 -1,0.6 -2,-1.2 -2.4,-2 -0.2,-4.4 4,-9.2 0.2,-13.2 -0.8,2 -0.2,4 -0.8,6 l -1.4,4.4 c -5.4,-1.8 0.8,-6 0.2,-9.2 l -0.2,-5.4 c 1.2,-1 2.8,0 3.8,0.4 l 2.6,2.6 z"
   id="path3876"
   style="fill:#ffffff;fill-opacity:1" /><path
   d="m 260.69933,188.9 c -3.4,3.4 -8,6.4 -11.4,10.2 l 1.2,1 12.4,-9.8 c 1,0.2 1.8,1 2.2,1.8 -3.2,4 -7.4,6.4 -11.2,10 0,0.8 0.8,1.2 1.2,1.2 4.4,-2.8 7.8,-6.2 12,-9.2 1.2,-0.2 1.8,1 2.4,1.4 v 1 l -10.8,9.2 c -0.4,0.8 0.6,1 0.8,1.4 4.2,-2.4 8,-6.8 12,-9.2 1.2,0 2,1 2.4,1.8 v 1 l -11.4,9.4 -47.4,0 c 1,-3.6 3.2,-5 4.8,-5.4 3,-1.2 7.4,1 9.2,-2.4 l -0.2,-1.8 c -4.4,-3.2 -9,-6 -13.2,-9.4 -2,-3 -6.2,-1.8 -9.2,-2.4 -1.4,0.2 -3.4,0.6 -3.8,2.2 0,2.4 2.2,4 3.8,5.8 0.4,2.2 -0.8,4 -2.4,5 -3.2,1.2 -4.8,-2.4 -7.4,-3.4 -2.2,-0.4 -5,-1 -6.2,-3 -0.8,-2.8 0.8,-5 1.4,-7.4 l 1,-0.8 c 8,-0.4 15.2,-0.2 23,0 1.8,2 3.4,-0.2 5.2,-0.2 l 4,0.2 c 0.2,0.8 -1.2,1 -0.8,1.8 2.2,1.8 3.4,-1.4 5.4,-2 1.8,0 3.2,0 5,0.4 l -3.4,3.4 c 0.8,0.6 1.8,1 2.4,0.6 l 5.4,-4.2 h 5 c -1.4,2.2 -4.4,4 -6.2,6.2 l 1.4,0.8 c 4.4,-2 7.4,-8.8 13.2,-7 v 0.8 l -9,7.8 c -0.6,0.8 0.4,1 1,1.2 4.8,-2.8 8.4,-7 13,-10 1.2,0 2.4,1 3.2,2 z"
   id="path3878"
   style="fill:#ffffff;fill-opacity:1" /><path
   d="m 370.49933,193.1 c 0,2.2 0.2,5.4 -2.8,5.2 l -1.4,-0.2 c 0.2,-1 1.2,-1.8 1.2,-2.8 -1.8,-0.2 -3,1.2 -4.8,0.8 -0.2,-2.2 2.8,-2 4,-3.4 1.2,-0.8 1.8,-2.2 3.2,-2.2 l 0.6,2.6 z"
   id="path3880"
   style="fill:#ffffff;fill-opacity:1" /><path
   d="m 298.09933,197.5 c 4.8,6.4 -1.8,12.4 -3.8,18 -0.6,0.8 -0.2,2.4 -1.4,2 -4.8,-4.4 1.2,-9.4 2.2,-14.2 0,-0.8 -0.2,-1.2 -0.8,-1.8 -2,3 -3.4,6.4 -5.2,9.4 -1,-0.2 -2.2,-1.8 -1.4,-3 2.2,-4.8 4.4,-9.2 4.2,-15 1.2,0 2.2,0.2 3.2,1 l 3,3.6 z"
   id="path3882"
   style="fill:#ffffff;fill-opacity:1" /><path
   d="m 146.69933,198.5 -0.2,0.8 -13.4,11 h -4.4 c 4.4,-4.4 10,-8.8 15,-12.8 1,0 2.2,-0.4 3,1 z"
   id="path3884"
   style="fill:#ffffff;fill-opacity:1" /><path
   d="m 114.49933,199.5 c -5.4,4.4 -13.8,1.8 -20.399997,3.4 -13,1.8 -24.8,6 -34.6,14.2 -5.4,4 -10.8,8.8 -16,13.8 -2,1 -4,2.8 -6.2,3.2 7.2,-12.4 20.8,-20.4 32.6,-27 12.8,-7 28.8,-9.6 44.599997,-7.6 z"
   id="path3886"
   style="fill:#ffffff;fill-opacity:1" /><path
   d="m 148.89933,202.5 c -0.2,4 -5,5.4 -7.4,8 l -5,0 c 3.2,-3.4 7.8,-6.8 11.6,-9.6 1,-0.2 0.6,1 0.8,1.6 z"
   id="path3888"
   style="fill:#ffffff;fill-opacity:1" /><path
   d="m 278.29933,204.5 c -2,2.4 -4.4,4.2 -6.8,6 l -4.8,-0.2 c 2.8,-3 5.8,-5.8 9.2,-7.8 1.2,0 2,1.2 2.4,2 z"
   id="path3890"
   style="fill:#ffffff;fill-opacity:1" /><path
   d="m 113.89933,203.1 c -12.2,16.2 -23.199997,33 -26.999997,52.6 h -0.4 c -3.4,-2.8 -0.8,-7.4 0.2,-10.8 4.8,-15.2 14.399997,-28.6 24.399997,-41.4 l 2.4,-1 0.4,0.6 z"
   id="path3892"
   style="fill:#ffffff;fill-opacity:1" /><path
   d="m 107.29933,204.7 c -9.799997,13.8 -19.399997,27.4 -23.799997,43.2 l -0.4,0.2 c -5.2,-7 -10.8,-16.4 -20,-18.4 -4,-1 -8.8,-1.2 -13,-1 l -0.6,-0.2 c 9,-9.2 19.8,-16.8 31.6,-20.4 8.2,-2.2 16.8,-3.8 25.799997,-3.4 l 0.4,0 z"
   id="path3894"
   style="fill:#ffffff;fill-opacity:1" /><path
   d="m 306.09933,210.5 c 3.8,7.8 -4,12.4 -6.4,18.4 -0.8,0.8 -1.2,-0.4 -1.4,-1 -1.4,-3.8 2.2,-7 3.8,-10.2 0.8,-1 0.8,-2.4 0.6,-3.8 h -0.6 c -2.2,2.8 -3.8,6.2 -5.8,8.8 l -0.8,-0.8 c -0.2,-6 3.8,-10.2 5.8,-15.2 2.4,-1 3.8,2.2 4.8,3.8 z"
   id="path3896"
   style="fill:#ffffff;fill-opacity:1" /><path
   d="m 282.09933,208.9 c -0.8,2.4 -4,1 -6,1.4 0.2,-1.8 2.2,-2.4 3.4,-3.8 1.6,0.2 2.2,1.6 2.6,2.4 z"
   id="path3898"
   style="fill:#ffffff;fill-opacity:1" /><path
   d="m 352.09933,210.7 5,2 c -1.2,2.4 -2.4,5.2 -2.4,8.2 -1.8,1.2 -2.2,-1.4 -3.2,-2.4 l -7.8,-11 c 0.4,-1 2,-0.8 2.4,0 l 6,3.2 z"
   id="path3900"
   style="fill:#ffffff;fill-opacity:1" /><path
   d="m 342.29933,209.9 c 3,4 6.4,7.8 8.8,12 -0.2,1 -0.8,1 -1.4,1.4 l -0.6,-0.2 c -2.4,-5 -6.4,-9.2 -8.8,-14.2 l 2,1 z"
   id="path3902"
   style="fill:#ffffff;fill-opacity:1" /><path
   d="m 372.89933,215.3 c -0.6,2.2 -1.4,4.2 -3.2,6 -3.4,3.2 -8.4,0.6 -12.2,0 -0.6,-0.8 -0.8,-2 -0.2,-2.4 3,-2.2 7.8,0.4 10.2,-2.4 l -0.6,-0.6 h -8.8 c 0,-1 1,-2.4 2.2,-2.8 3.8,0.8 8,0.2 11.8,-0.2 l 0.8,2.4 z"
   id="path3904"
   style="fill:#ffffff;fill-opacity:1" /><path
   d="m 136.69933,214.7 c -6.4,6 -14.6,12.2 -21.6,17.2 0,-2.2 1.4,-4 2.4,-6 4.8,-3.8 8.6,-8 13.6,-11.2 h 5.6 z"
   id="path3906"
   style="fill:#ffffff;fill-opacity:1" /><path
   d="m 126.89933,215.3 c -2,1.4 -3.8,3 -5.8,4.2 1.4,-1.8 1.8,-6.4 5.8,-5 v 0.8 z"
   id="path3908"
   style="fill:#ffffff;fill-opacity:1" /><path
   d="m 144.29933,214.9 c 0,0 -1.4,3.4 -1,5.4 l 2,12.2 c 1.2,2.2 3.8,4.2 4.4,6.8 -6.4,0 -14.2,0 -21.2,0 -0.6,-0.8 0.2,-1.4 0.2,-2.4 -1.4,0 -2.2,2.2 -4,2.4 l -4.8,-0.2 c 5,-5.8 13.2,-9.2 16.8,-16.2 l -0.2,-0.2 -20.8,16.8 h -4 c -0.4,-1.2 0.6,-2.4 1.4,-3.2 9.2,-7.2 26.4,-21.2 26.4,-21.2 l 4.8,-0.2 z"
   id="path3910"
   style="fill:#ffffff;fill-opacity:1" /><path
   d="m 266.89933,214.7 c 1.2,2.4 2.8,-0.2 4.2,0 l 3.8,0.2 c -0.6,1.8 -2.8,2.4 -3.8,4 -0.2,0.8 0.4,2 1.4,1.4 3.4,-2.2 6,-7.2 10.8,-5.2 l -0.2,0.8 -9,7.8 c 0.2,0.6 0.6,1.2 1,1.2 l 11.4,-9 c 1.2,0.6 2,2 2.2,3.2 l -11.2,9.8 c 0,0.6 0.2,1.2 1,1.4 l 11.4,-9 c 1,0.6 1.8,2 1.8,3.4 l -11.4,9.4 c -0.2,0.8 0,1.4 0.8,1.4 4,-2.4 7.8,-6.2 11.8,-8.8 1.4,0.2 1.2,2 1.8,3 -3.4,3.2 -7.4,7 -11.8,9.4 h -71.8 c -2,0 -1.2,-2.4 -2.8,-3.2 -1.8,-2 -4.8,-3.8 -3.2,-6.4 0.8,-2.4 3,-4.4 5,-6.2 2.2,-7.4 5.6,-9 5.6,-9 l 51.2,0.4 z"
   id="path3912"
   style="fill:#ffffff;fill-opacity:1" /><path
   d="m 312.29933,221.1 c 1.8,5.8 -2.4,10 -3,15.4 -1.2,0.4 -2.8,-0.2 -3.8,-1 -0.4,-3.4 2.8,-6.8 2,-10.4 h -0.8 c -1.8,2.4 -2.8,5.8 -4,8.4 -0.8,0 -1.4,-0.8 -1.4,-1.4 0.2,-6 6.4,-9 7.4,-14.4 1.8,-0.4 3.4,1.6 3.6,3.4 z"
   id="path3914"
   style="fill:#ffffff;fill-opacity:1" /><path
   d="m 81.699333,222.1 c 1.2,1 1.2,3.2 0.8,4.8 -0.4,2 -2.4,3 -4.4,3 -2,0 -3.8,-1.4 -4,-3.4 -0.4,-1.8 0,-3.8 1.4,-5 1.8,-1.4 5,-1.4 6.2,0.6 z"
   id="path3916"
   style="fill:#000000;fill-opacity:1" /><path
   d="m 81.099333,224.9 c 0,1.2 -1,2.8 -2.4,3 -1.2,0 -2.2,-1 -2.8,-2 0,-1.2 0.6,-2.8 2,-3 1.4,-0.6 2.8,0.4 3.2,2 z"
   id="path3918"
   style="fill:#ffffff;fill-opacity:1" /><path
   d="m 365.29933,225.1 c 0.8,1.4 0.4,3.8 -0.2,5.2 -1,2.4 -3.2,4.2 -6,4.8 -4,0.6 -7,-3.2 -9,-6.2 v -0.4 c 3.8,-1 7,1.4 10.4,1 -1.8,-3.2 -6,-2.8 -9.2,-3.8 3.4,-4.8 9.2,-0.6 14,-0.6 z"
   id="path3920"
   style="fill:#ffffff;fill-opacity:1" /><path
   d="m 321.09933,229.3 c 4,3.8 2.8,9.2 4,14.2 -2,1.2 -4.8,2.8 -7,1.2 -1.4,-3.8 2,-8 -0.4,-11.2 -1.4,2.8 -1.8,6.2 -2.2,9.8 -1.4,0 -2.4,-1.4 -3.2,-2.8 -1.4,-4.8 0.8,-9.4 2.8,-13.2 2.2,-0.4 4.2,0.6 6,2 z"
   id="path3922"
   style="fill:#ffffff;fill-opacity:1" /><path
   d="m 354.29933,236.9 c -1.2,3.2 -4.8,5.4 -8.4,5.2 -5.4,-1.2 -7.2,-7.2 -9.8,-11.4 0,-1 1,-1.2 1.8,-1.4 3.2,1.2 4.2,7 8.8,6.2 -2,-2.2 -4.4,-5 -5.8,-7.4 3.4,-1.2 6.2,1.4 8.4,4 l 5,4.8 z"
   id="path3924"
   style="fill:#ffffff;fill-opacity:1" /><path
   d="m 334.09933,231.9 c 2,2.4 2.4,5.2 4,7.8 -1.2,1.8 -2.2,5.2 -5,4.4 -2,-2.4 -0.2,-7.2 -3.8,-8.4 -0.6,3.4 1,6.4 1.8,9.4 -1.2,1 -2.2,-0.2 -3.2,-0.8 -2,-4.2 -1,-10 -3.2,-14.2 0.8,-1 2,-1 3,-1.2 2.4,0.2 4.8,1 6.4,3 z"
   id="path3926"
   style="fill:#ffffff;fill-opacity:1" /><path
   d="m 78.499333,245.3 c 3.4,4.2 4.8,9.4 7,14.2 -4.4,-3.4 -9,-7.8 -13.4,-11 l -0.8,-5.2 c -1.2,-4.2 -5,-8.2 -9.2,-9.2 -3.8,-0.8 -7,0.4 -10,1.8 l -11.4,-0.6 v -0.2 c 3,-2.2 6.2,-4.4 10.4,-4.2 11.6,-1.2 22,4.4 27.4,14.4 z"
   id="path3928"
   style="fill:#ffffff;fill-opacity:1" /><path
   d="m 297.09933,235.9 -3.8,3.4 c -1.8,0.2 -4,0.4 -5.4,-0.2 2.2,-2.4 5,-4.2 7.8,-6.2 1.2,0.4 1.2,1.8 1.4,3 z"
   id="path3930"
   style="fill:#ffffff;fill-opacity:1" /><path
   d="m 158.29933,238.9 c -1.2,-0.8 -3.2,-2.4 -3.2,-4.2 1.6,1 3,2.4 3.2,4.2 z"
   id="path3932"
   style="fill:#ffffff;fill-opacity:1" /><path
   d="m 68.499333,241.9 c 1,2 1.8,4.8 1,7 -7.2,11 -11.8,23.2 -12,37 -4.4,0.6 -7,5.2 -8.8,8.8 -2.8,-0.2 -5,1 -7.2,1.8 -0.2,-10.8 2.2,-21 5.2,-30.6 1.2,-3.4 3.4,-6.8 3.4,-10.4 l -0.2,-0.2 c -6,8.2 -7.4,18.2 -9.4,28 l -1.4,16.8 c -1,1.4 -2,3.4 -4,2.4 -2.2,0.2 -1,-2 -1.4,-3.2 -0.2,-9.2 1,-18.2 4,-26.4 3.2,-12.2 8.4,-23.8 15.8,-34.2 2.2,-2 5.4,-2.8 8.4,-1.8 2.6,0.2 5.6,2.2 6.6,5 z"
   id="path3934"
   style="fill:#ffffff;fill-opacity:1" /><path
   d="m 202.29933,239.1 -0.8,0.4 -13.8,-0.2 v -0.2 c 2.2,-0.8 4.8,0.2 7,-0.8 2,-2 6,-2.2 7.6,0.8 z"
   id="path3936"
   style="fill:#ffffff;fill-opacity:1" /><path
   d="m 361.09933,238.1 v 0.2 l -3.8,0.6 c -0.4,-0.2 0,-1 0.2,-1.2 1,-0.4 3,-1 3.6,0.4 z"
   id="path3938"
   style="fill:#ffffff;fill-opacity:1" /><path
   d="m 298.09933,239.3 c 0,0 -0.4,0 -0.8,0 l 0.2,-0.6 h 0.4 v 0.6 z"
   id="path3940"
   style="fill:#ffffff;fill-opacity:1" /><path
   d="m 366.49933,242.7 v 0.4 c -9.4,-0.8 -17,5.2 -23.4,11.8 -1.4,2.4 -2,5.2 -2.8,8 -1.4,-1 -1.4,-3 -1,-4.4 0.8,-3.8 2.2,-8 6,-10 6.2,-3.8 12,-9.2 20,-7 l 1.2,1.2 z"
   id="path3942"
   style="fill:#ffffff;fill-opacity:1" /><path
   d="m 345.49933,245.1 -5.8,4.8 c -1.8,-0.8 -2.2,-2.4 -3.4,-3.8 1,-1.4 2,-3 3.2,-4.2 1.8,1.4 4,2.2 6,3.2 z"
   id="path3944"
   style="fill:#ffffff;fill-opacity:1" /><path
   d="m 119.49933,243.5 c -3,3.4 -7,6.2 -10.8,9.2 -0.4,-1.8 0.2,-3.8 0.8,-5.4 2,-1 3.4,-3.4 5.8,-4 1.2,0.2 2.8,-0.2 4.2,0.2 z"
   id="path3946"
   style="fill:#ffffff;fill-opacity:1" /><path
   d="m 155.29933,243.3 c 3.2,2.8 7.8,-2.8 9.8,2.4 3.4,9.4 14.4,11.2 23.2,13.2 3.8,-0.8 9,-1.4 11.4,2.2 2.8,3.4 7,5.2 11.2,6 l 0.6,0.4 -0.8,0.6 h -88.4 c -0.8,-0.8 -0.2,-2 -0.6,-3 -2,0.2 -3,3 -5,3 h -4.6 c 3,-3.2 7,-6.2 10.2,-9.2 0.6,-0.8 0.6,-1.8 0.6,-2.4 -5.2,3.4 -10,8 -15,11.8 -0.8,0.2 -1.8,-0.2 -1.4,-1.2 l 0.4,-2.4 17.4,-14.8 c 0.2,-1 1,-1.8 0.6,-2.4 -6,4.2 -11.4,9.2 -17.4,13.8 l -0.2,-0.2 0.4,-4 16.2,-13.2 1.4,-0.2 h 30 z"
   id="path3948"
   style="fill:#ffffff;fill-opacity:1" /><path
   d="m 288.09933,243.5 c 0,0 -5,2.8 -2.4,4.6 l 6.4,-4.2 h 5 c -3,3.4 -7,5.8 -10.4,9 -0.2,0.8 0,1.8 0.6,2 l 12.4,-9.4 c 1.2,-0.2 1,1.2 1.2,2.2 l -0.2,1 -13,10.8 c 0,0.6 0,1.4 0.4,2 l 13,-10 c 1.2,0.2 0.8,2 1,2.8 l -1,1.4 -16,13 h -37 c -4.4,-2.4 -8.8,-5.8 -14.2,-5.8 -3.4,-0.6 -6.2,1.8 -9.8,1.4 -3.4,1 -7.2,1.2 -10.4,-0.2 -3.8,-0.8 -5.2,-4 -6.4,-7 -2,-3 -6.4,-0.4 -7.8,-3.8 -0.4,-1.8 -1.2,-3.8 -3,-4.8 -3.4,-1.2 -5.2,5 -8.8,1.2 -1.8,-0.8 -3.8,-2 -4.2,-4 0.2,-0.8 0.2,-1.8 1,-2.2 h 20.2 l 0.4,4 c 4.4,2.2 8.8,6 14.2,5 0.8,-1.4 0.6,-3.2 -0.2,-4.4 -1.8,-2 -4.4,-1.8 -5.8,-4 l 0.2,-0.6 74.6,0 z"
   id="path3950"
   style="fill:#ffffff;fill-opacity:1" /><path
   d="m 46.099333,244.9 c 0,0.4 0,1 -0.4,1 -0.8,0 -1,-0.4 -1.2,-1 0,-0.8 1,-0.4 1.6,0 z"
   id="path3952"
   style="fill:#ffffff;fill-opacity:1" /><path
   d="m 44.099333,248.5 -2.8,5.8 c -2.4,-1 -3.4,-4 -5.8,-5.2 -1,-1.2 -3.2,-1.2 -2.8,-2.8 1,-1.4 3,-1.2 4.2,0.2 1.2,0.4 2,3.2 3.4,2.2 1,-1.4 -1.4,-2.8 -1.8,-4 2.6,0.2 4.6,1.8 5.6,3.8 z"
   id="path3954"
   style="fill:#ffffff;fill-opacity:1" /><path
   d="m 216.29933,249.3 c 0.2,0.2 0.2,0.8 -0.2,1 -2.4,-1 -5,-2 -7.2,-3.2 -0.6,-0.8 -1.2,-1.4 -0.6,-2.2 3.2,0.2 5.2,3.2 8,4.4 z"
   id="path3956"
   style="fill:#ffffff;fill-opacity:1" /><path
   d="m 361.49933,246.3 c -5.2,3 -10.4,6.2 -15.4,9.8 -0.6,0.2 -0.8,-0.2 -0.8,-0.4 4.2,-4.8 9.8,-7.8 15.2,-9.8 h 1 v 0.4 z"
   id="path3958"
   style="fill:#ffffff;fill-opacity:1" /><path
   d="m 338.49933,252.3 -1.4,4.4 -0.6,-0.2 c -2.8,-3 -5,-5.8 -7,-9 2,0.6 4,-1.4 5.4,0.2 l 3.6,4.6 z"
   id="path3960"
   style="fill:#ffffff;fill-opacity:1" /><path
   d="m 371.49933,252.3 c -3.8,-0.4 -7.8,-2.8 -11,0.2 -4.2,2.8 -9,5.4 -12.4,9.2 l -2,7.4 c -0.8,0.2 -1,-0.8 -1.4,-1.2 l 2.2,-9.2 c 5,-4.8 10.8,-7.4 16.4,-10.4 3,0.8 7.4,-0.2 8.2,4 z"
   id="path3962"
   style="fill:#ffffff;fill-opacity:1" /><path
   d="m 39.099333,255.9 c -0.6,1.4 -2,2 -3.4,2 -4.4,0.2 -7.2,-4.4 -11.8,-5 0,-0.8 -0.2,-1.8 0.8,-2 3.2,-0.2 5.8,4.2 9,2 l -0.2,-0.6 -5.4,-3 c 4.4,-2 8.4,3.2 11,6.6 z"
   id="path3964"
   style="fill:#ffffff;fill-opacity:1" /><polygon
   points="121.6,228.2 121.5,228.3 121.5,228.2 "
   id="polygon3966"
   style="fill:#ffffff;fill-opacity:1"
   transform="matrix(2,0,0,2,-219.90067,-204.1)" /><path
   d="m 366.69933,257.9 c -3,3 -6.8,5 -10.2,7.2 -2,-0.2 -3.4,-2 -5,-3 2.4,-3.2 6.4,-5.2 9.8,-7.4 1.4,-0.2 2.4,-2 4,-1.2 1,1 1,2.8 1.4,4.4 z"
   id="path3968"
   style="fill:#ffffff;fill-opacity:1" /><path
   d="m 371.89933,256.3 1.2,4.4 c -1.2,0.2 -3,-0.8 -4,-1.8 -0.2,-1.4 -1.2,-3.2 -0.8,-4.8 1.6,0.2 3.4,0.8 3.6,2.2 z"
   id="path3970"
   style="fill:#ffffff;fill-opacity:1" /><path
   d="m 72.699333,257.5 c 0.6,1.8 0,3.4 -1,4.8 -2.2,2.8 -5.4,4.2 -8.4,6 1.2,-3 5.8,-5.4 5.2,-9.4 -1,0 -1.8,1.4 -2.4,2.2 0,-2.2 1.4,-4.8 3.2,-6.4 1.8,-0.2 2.8,1.4 3.4,2.8 z"
   id="path3972"
   style="fill:#ffffff;fill-opacity:1" /><path
   d="m 31.499333,259.3 c 0.8,1.2 -1.2,2.2 -2,2.8 -4.4,1.8 -8.2,-1.4 -12.8,-1.4 -0.2,-0.8 0.2,-2.2 1.2,-2 3,-0.8 5.4,2.4 7.4,-0.2 -1,-1 -3,-1.2 -4.2,-2 -0.2,-0.6 0.2,-1.2 0.8,-1.2 4,-0.4 6.6,2.2 9.6,4 z"
   id="path3974"
   style="fill:#ffffff;fill-opacity:1" /><path
   d="m 303.09933,260.9 c -2.8,2.8 -6,5.2 -9,7.8 -1.4,0.2 -3.2,0.2 -4.4,0 l 0.6,-1 12,-9.8 c 1,0.2 0.4,2 0.8,3 z"
   id="path3976"
   style="fill:#ffffff;fill-opacity:1" /><path
   d="m 39.099333,259.3 c -2.4,9 -6,18 -7.2,27.4 -0.8,5 -0.6,10.8 -0.8,16 -2,1.4 -3.8,3.8 -5,5.8 -3.8,-2 0.4,-6.8 -2.2,-9.8 l -2,-3.8 c 1.4,-3 1,-6.8 0.2,-10 3,-3.2 4,-7.2 3.2,-11.8 2.4,-2.4 4.4,-5 4.2,-8.8 1.8,-1 3.8,-2 5,-4.2 1.4,0 3,0 4.6,-0.8 z"
   id="path3978"
   style="fill:#ffffff;fill-opacity:1" /><path
   d="m 373.49933,264.1 -0.2,0.8 c -4.4,4.4 -9.8,7.2 -14.8,10.4 h -0.8 c -0.4,-2.4 -0.8,-5.2 -0.4,-7.8 l 9.2,-6.8 c 2.8,0.6 5,2.2 7,3.4 z"
   id="path3980"
   style="fill:#ffffff;fill-opacity:1" /><path
   d="m 77.499333,265.9 c 0.8,2 0.6,4.4 -0.6,6.2 -3,5.4 -10.2,3.8 -15.2,5.8 h -0.2 l 0.2,-2.2 c 3.8,-1.8 9.8,-2 10.4,-6.8 -3.2,1.2 -6,3.4 -9.8,3.8 0,-1.4 2,-2.8 3.2,-3.4 3,-2 6.8,-3 8.8,-6.4 1.8,0 2.4,1.6 3.2,3 z"
   id="path3982"
   style="fill:#ffffff;fill-opacity:1" /><path
   d="m 27.099333,265.1 c 0.6,1.2 0,3 -0.8,4 -3.4,5.8 -10.2,1.8 -15.4,3 -1.4000004,-3 2,-3.4 4,-3.8 1.8,-0.8 4.8,1.4 5.4,-1.2 -1.2,-1.2 -4,-1 -6,-0.8 -0.6,0.2 -1.2,0.2 -1.8,0 0.6,-2 2.8,-3.4 4.8,-3.4 3.4,0.4 6.6,1.4 9.8,2.2 z"
   id="path3984"
   style="fill:#ffffff;fill-opacity:1" /><path
   d="m 354.69933,267.3 c 0.2,2.2 0.4,4.4 0.4,7 -2.4,-0.2 -4.4,-2.4 -6.8,-4.2 0,-2 0.2,-4 1.2,-5.8 2,0.6 4,1.6 5.2,3 z"
   id="path3986"
   style="fill:#ffffff;fill-opacity:1" /><path
   d="m 303.29933,268.3 c -1.2,0.8 -3.4,0.4 -5.2,0.2 1,-1.8 3.2,-3 4.8,-4.2 1,0.8 0.8,2.8 0.4,4 z"
   id="path3988"
   style="fill:#ffffff;fill-opacity:1" /><path
   d="m 247.49933,270.5 c 4.2,1.8 9.2,2.2 12.8,5.8 4,3 7.8,7 12.4,8.4 2.8,0.8 6,1.4 7,4.4 0.8,3.8 -4,4.8 -5.8,7.8 -3.2,2.8 -2.8,7.2 -4.4,10.8 -4,3.8 -7.2,8 -12.2,10.4 -4.8,2.4 -2.2,9 -7.8,10.8 -6.8,4 -15.2,10.2 -14,19.4 -0.2,1.8 1,4 -0.2,5.2 -5.2,-0.6 -5.4,-6.2 -7.8,-9.8 0.2,-4.4 -1,-8.8 -1,-13 1.8,-4.8 2.4,-10.2 4,-15.2 0.8,-3.2 -1.8,-5.4 -2,-8.4 -0.6,-4.4 -5.8,-4.8 -8.2,-8.2 -1.4,-4 -4,-7.8 -5.8,-11.8 -0.2,-1.8 -1,-4 0.2,-5.8 2,-2.2 3.4,-4.8 3.2,-8 -0.2,-2.4 -1.4,-4.8 -3.2,-6.8 3.4,1 6.8,-0.2 10.2,-0.4 5.2,-1.4 11.8,-2 16.8,0.8 l 5.8,3.6 z"
   id="path3990"
   style="fill:#ffffff;fill-opacity:1" /><path
   d="m 102.89933,272.1 -0.6,4.2 c -2.799997,0.8 -5.399997,-1 -8.399997,-0.4 -0.2,-1.2 0.4,-2.8 1.4,-4 2,-1.8 4.999997,-1.4 6.999997,-0.6 l 0.6,0.8 z"
   id="path3992"
   style="fill:#ffffff;fill-opacity:1" /><path
   d="m 111.09933,273.3 c -1,1.2 -2.8,2.8 -4.2,3.4 -0.4,-1.2 -1,-3.2 0.6,-3.8 1.2,-0.2 2.4,-0.2 3.6,0.4 z"
   id="path3994"
   style="fill:#ffffff;fill-opacity:1" /><path
   d="m 120.49933,273.7 -12.4,10 h -0.4 l -0.6,-3.4 c 2.4,-3 5.8,-5.2 9,-7.4 l 4.4,0.2 v 0.6 z"
   id="path3996"
   style="fill:#ffffff;fill-opacity:1" /><path
   d="m 215.69933,273.1 c 0,0 1,2.8 -3.4,8.8 -1,5.8 2.8,10.2 4.8,15 0.6,1 -0.8,1.8 -1.4,1.4 h -92.6 c 0.2,-1.8 4.2,-2.8 1.8,-4.8 l -6.2,4.8 -4.8,-0.2 c 2.8,-3.2 6.8,-5.8 10,-9 0,-0.6 0.2,-1.4 -0.6,-1.8 l -12.8,10 c -1,-0.8 -1,-2.2 -1,-3.4 4,-4 8.8,-7.4 13,-11.4 v -1.4 h -1 c -4.2,3.2 -8.4,7.2 -13,10 -0.8,-1 -1,-2.8 -0.6,-4 l 13.8,-11.4 c 0.2,-1 1.6,-2.2 1.6,-2.2 l 92.4,-0.4 z"
   id="path3998"
   style="fill:#ffffff;fill-opacity:1" /><path
   d="m 297.09933,273.5 -9.4,8 c -0.6,0.8 -0.6,1.4 -0.6,2.4 l 1,-0.2 13.4,-10.8 c 2.4,-0.8 1.8,2 1.8,3.4 l -17.8,14.4 c -0.2,1 -1,2.2 -0.6,3 6,-4.2 11.4,-9.8 17.8,-13.8 0,2 0.2,4.8 -1.4,6 l -15.2,12 h -9.4 c 0.2,-2 3,-3.2 4.2,-4.8 1,-2 1.2,-4.4 0.6,-6.4 -3.2,-3.8 -8.2,-3.8 -12.2,-6.2 -3.2,-2 -9.2,-7.4 -9.2,-7.4 l 27.8,0 c 0,0 0,1.8 0.6,2.4 1.8,-1.4 3.8,-3.2 6.8,-2.4 0.2,-0.4 1.4,-0.2 2,-0.2 v 0.6 z"
   id="path4000"
   style="fill:#ffffff;fill-opacity:1" /><path
   d="m 23.099333,274.3 c 0.8,2.4 0.2,5.4 -1.4,7.8 -3.8,3.8 -9.8,2.2 -14.2000004,4.2 -0.8,-0.2 -1.2,-1.4 -0.8,-2.4 2,-2.4 4.8000004,-3 7.4000004,-3.8 1.2,0 3.2,0.2 3.8,-1.8 l -0.2,-0.4 c -4.2,-0.6 -7.8000004,1 -11.0000004,3 h -0.2 c 0,-2 0.2,-4.2 2.2,-5.4 4.2000004,-3.2 9.4000004,0.2 14.4000004,-1.2 z"
   id="path4002"
   style="fill:#ffffff;fill-opacity:1" /><path
   d="m 76.299333,277.7 c 0.2,3.2 -1,6 -3.4,8 -3.8,2 -8.4,0.8 -12.4,0.2 -0.8,-1.2 0.2,-2.4 1.4,-2 2.4,-0.2 6.4,1.2 7.8,-1.8 l -0.2,-0.4 c -2.4,0.2 -5.8,0 -8,0 l -0.2,-0.6 c 2.8,-3.2 7.8,-2.2 11.4,-3.2 0.8,-0.2 3,-1.8 3.6,-0.2 z"
   id="path4004"
   style="fill:#ffffff;fill-opacity:1" /><path
   d="m 102.69933,279.3 c 0.2,1 1.2,2.8 0,3.8 -3.799997,4.2 -9.199997,3.2 -14.199997,4.2 -0.8,-1 -0.2,-2 0,-2.8 2.4,-2 6.4,-0.8 8.4,-3.8 l -0.4,-0.2 c -2.2,0 -4.4,0.8 -6.2,0.2 2.4,-4.2 8.4,-2.4 12.399997,-1.4 z"
   id="path4006"
   style="fill:#ffffff;fill-opacity:1" /><path
   d="m 20.899333,289.5 c 1.2,8 -8,8 -11.8000004,12.2 -0.8,0.8 -1.2,1.4 -2.2,1.4 l -1.8,-3 c 1.4,-3.4 5.4000004,-6 9.0000004,-7 0.4,-0.8 1,-1.2 1,-2 -4,0 -7.8000004,2.4 -10.4000003,6 -0.8,-0.4 -0.8,-1.8 -0.4,-2.8 0.4,-2.2 1.3999999,-5.4 4.1999999,-6.2 3.8000004,-1.2 7.4000004,-1.8 11.4000004,-2.2 l 1,3.6 z"
   id="path4008"
   style="fill:#ffffff;fill-opacity:1" /><path
   d="m 101.49933,287.1 c 0,2 -1.2,4 -2.399997,5.4 -3.4,5 -9.8,4.8 -14.4,7.8 -0.8,-0.2 -0.8,-1.2 -0.4,-2 2.8,-2.4 6.8,-2.8 9,-6 l -0.2,-0.2 -8.8,3 c 0,-1.2 0.4,-3 1.8,-4.2 4.2,-3.2 10.6,-1.2 15.399997,-3.8 z"
   id="path4010"
   style="fill:#ffffff;fill-opacity:1" /><path
   d="m 70.699333,289.1 c 0.6,3 -2,5 -4,6.8 -4.2,3.8 -10.8,1.4 -15,-0.4 -0.8,-0.6 -0.2,-1.4 0.2,-2 4,-0.4 9,2.8 12.2,-1 v -0.2 c -3.4,0.4 -7.2,-0.6 -10.4,-1.2 0.4,-2 2.8,-2.2 4.4,-2.4 4.4,-0.6 8.4,1 12.6,0.4 z"
   id="path4012"
   style="fill:#ffffff;fill-opacity:1" /><path
   d="m 104.29933,289.7 c 1,5.2 2.8,10.2 4.2,15.2 -2,2.2 -4.8,4 -7.4,5 -3.399997,-1.4 0.2,-4.2 -0.4,-6.8 0.4,-2.8 -0.6,-5.2 -0.999997,-7.4 l 4.199997,-6.2 0.4,0.2 z"
   id="path4014"
   style="fill:#ffffff;fill-opacity:1" /><path
   d="m 301.29933,289.5 c 1.2,4.2 -3.4,6.4 -6.2,8.8 h -4.2 v -0.6 c 3.2,-3 6.8,-6 10.4,-8.2 z"
   id="path4016"
   style="fill:#ffffff;fill-opacity:1" /><path
   d="m 58.699333,299.9 c 0,1.8 -1.2,3.2 -2.8,4.4 -2.2,1.8 -5,3 -8.2,2.8 -3,-0.8 -6,-2.2 -8.4,-4 0.4,-1.2 1,-2.8 2.2,-2.8 3.8,0.2 7,4.2 10.4,1.2 v -0.6 c -3,-0.2 -5.4,-1.4 -8,-2.4 -0.8,-1.8 1.8,-1.8 2.8,-2.2 4.4,0.4 7.8,3 12,3.6 z"
   id="path4018"
   style="fill:#ffffff;fill-opacity:1" /><path
   d="m 98.499333,301.5 c 1.2,7 -7,9.4 -11,13.2 -1.2,-0.4 -1.8,-1.8 -2.4,-2.8 1,-4.4 7.4,-4.8 8,-9.4 l -0.6,-0.2 -8.4,6.4 c -1.2,-1.8 -0.2,-4 0.4,-5.8 3.4,-3.2 8.4,-3 12.4,-5.4 1.6,0.4 1.4,2.4 1.6,4 z"
   id="path4020"
   style="fill:#ffffff;fill-opacity:1" /><path
   d="m 22.699333,301.7 c 1.2,7.2 -6.8,10.4 -10,15.4 -1,-0.2 -1.4,-1.2 -2,-2.2 1,-3.2 3.8,-5.8 6.2,-8.2 0.2,-0.6 0.4,-1.8 -0.2,-2 -2.8,1.8 -5.2,4.4 -7.0000004,7.2 -1.2,0 -1.2,-1.4 -1.4,-2.4 -0.2,-3 0.8,-5.8 3.4000004,-7.2 2.8,-1.8 5.8,-3 8.4,-4.4 1.6,0.4 2.2,2.4 2.6,3.8 z"
   id="path4022"
   style="fill:#ffffff;fill-opacity:1" /><path
   d="m 63.499333,300.3 c 4,8.4 11.2,18.8 22,18 -1.8,6.2 3.4,10.4 6,15 -0.8,5 3.2,8.8 6.8,11.2 -0.2,2.4 0.6,5 1.2,7.2 -3.2,9.2 -0.6,19.2 5.399997,26.4 11.8,14 28.6,17.2 46.4,18 h 4.2 c 5.2,3.2 11,5 17.8,4.2 5.4,-0.2 11,-1.4 16,-3.4 0.8,1.8 -1.2,3 -2.2,3.8 -5.8,4.2 -13,5.2 -19.4,7.8 -12.8,8 -29.4,6.8 -44.6,5 -9,-1 -16.8,-5.2 -24.999997,-8.2 -16.2,-8.8 -30.4,-22.8 -47,-30.4 l -6.2,-2 c -0.8,-3.2 -4.2,-5.4 -6.2,-7.8 0.6,-4.4 -1.8,-8.4 -5,-11.8 l 0.6,-3.4 c 2,-7.8 3.2,-16.2 3,-25 -1.2,-3 1,-5.2 2.2,-7.4 0.8,-0.2 1.8,-0.2 2,0.8 2.8,9.4 -0.6,19.2 -2,28.4 0.2,0.4 0.2,1 0.8,1.2 l 1.2,-1.4 c 1.2,-4.4 2.2,-9 2.8,-13.8 -0.4,0.2 -0.8,0 -0.4,-0.4 l 0.4,-0.2 c 0.8,-5 0.2,-10.4 -0.8,-15 2.8,-2 5.8,-4.4 7.8,-7.4 4.4,-1 8.8,-4.2 10.4,-8.8 0.4,-1 1,-1.2 1.8,-0.6 z"
   id="path4024"
   style="fill:#ffffff;fill-opacity:1" /><path
   d="m 121.69933,302.7 c -1.8,2.8 -4.4,4.4 -7.2,6.2 -0.8,-1 -2.2,-2.8 -1,-3.8 2.2,-2.2 5.2,-3.2 8.2,-2.4 z"
   id="path4026"
   style="fill:#ffffff;fill-opacity:1" /><path
   d="m 221.29933,302.7 c 1.8,2 5.8,2 5.4,5.4 0.8,3.2 3.2,7 1,10.4 l -2.2,8.4 h -82.4 c 0.2,-0.8 -0.2,-1.4 -1,-2 -1.2,0.2 -2.2,1.8 -3.8,2.2 l -5,-0.2 c 1.4,-2 4,-3.8 5.8,-5.4 -0.2,-0.8 -0.8,-1.8 -1.8,-1 -4.2,2.2 -7,8.8 -13,6.2 3.2,-3.8 8,-6.4 11.2,-10 0,-0.4 -0.2,-1.2 -0.8,-1.4 l -12,9.2 c -1.2,-0.2 -1,-1.8 -1.8,-2.4 3.2,-3.8 7.4,-6.8 11.2,-10 0.4,-0.8 0,-1.2 -0.6,-1.8 -4.2,2.8 -8,6.2 -12,9.2 -1,-0.8 -1.8,-1.8 -1.8,-3 3.8,-3.4 8.2,-6.4 11.8,-10.4 0,-0.6 -0.6,-1 -1,-1.2 l -12,9.2 c -1,-0.6 -1,-1.8 -1.4,-2.8 3.2,-3 7.2,-6 11,-8.8 h 95.2 z"
   id="path4028"
   style="fill:#ffffff;fill-opacity:1" /><path
   d="m 281.09933,302.7 c 0.8,0.8 -1.2,2.8 0.4,2.4 1.8,-2.4 4.8,-3 7.4,-2.4 l -0.4,1 c -5.2,5.2 -13,8.8 -16,15.4 l 2,-1.2 19,-15.2 h 4 l -0.2,2 -27.8,22.8 -14.8,-0.2 c -0.6,-6 6,-8.8 10,-12 2.8,-3.2 8,-5.8 7.8,-10.8 l 0.8,-1.8 h 7.8 z"
   id="path4030"
   style="fill:#ffffff;fill-opacity:1" /><path
   d="m 47.299333,309.3 c 0.8,0.8 -0.2,1.4 -0.8,2 -2.4,2.2 -5.2,3.8 -8.8,3.4 -3.4,0 -6,-2.8 -9,-4 -0.8,-0.8 0.2,-1.4 0.6,-2 4.2,-1.2 7.2,4.8 11.2,1.4 l -1,-0.6 c -3,-0.8 -5.8,-2.8 -8.8,-3.4 0.6,-1.2 2,-1.8 3.2,-2 5.2,0.4 8.6,4.4 13.4,5.2 z"
   id="path4032"
   style="fill:#ffffff;fill-opacity:1" /><path
   d="m 122.09933,330.7 c -3,2.4 -6.2,4.4 -9.4,6.8 l -4.8,-4.8 c 1,-6 -2.4,-10.4 -5.8,-14.4 1,-2.4 -2,-5.4 0.8,-6.8 l 6.4,-3.8 c 3.6,8 7.6,16 12.8,23 z"
   id="path4034"
   style="fill:#ffffff;fill-opacity:1" /><path
   d="m 27.099333,314.5 c 1.8,5 -1.4,9.4 -4,13.8 -1.2,0.2 -2.8,-0.2 -3.8,-1 -1,-4 4.4,-6.8 2,-10.4 -1.4,2.4 -3.2,5.4 -4.2,8.4 -1.4,0.4 -2,-2 -3,-3 -1,-4 3.4,-6.4 5.8,-9.2 l 3.2,-3.4 c 2.2,0.6 3,3 4,4.8 z"
   id="path4036"
   style="fill:#ffffff;fill-opacity:1" /><polygon
   points="257.4,256.9 257.5,257.2 256,260.4 249.3,265.8 246.8,265.6 "
   id="polygon4038"
   style="fill:#ffffff;fill-opacity:1"
   transform="matrix(2,0,0,2,-219.90067,-204.1)" /><path
   d="m 99.699333,313.9 c 1.799997,6.8 -3.8,11.4 -7.2,16.2 -1.2,-1.2 -3.8,-3 -2.4,-4.8 1.8,-3.2 6.2,-5.8 4.2,-9.4 -1.8,2.4 -3.8,5.4 -5.8,8 -1.2,-0.2 -1,-1.8 -1.2,-2.8 0.2,-5.8 6.8,-7.8 10.2,-11 1.2,0.6 1.8,2.6 2.2,3.8 z"
   id="path4040"
   style="fill:#ffffff;fill-opacity:1" /><path
   d="m 36.499333,317.3 c -0.6,1.4 -1.4,2.8 -2.4,3.8 l -4.4,-1.8 v -5.4 l 6.8,3.4 z"
   id="path4042"
   style="fill:#ffffff;fill-opacity:1" /><path
   d="m 74.099333,320.7 c -0.4,1 -2,1.4 -3,0.8 -2.8,-1.4 -4.8,-4.4 -4.4,-7.4 1.8,2.8 4.6,4.8 7.4,6.6 z"
   id="path4044"
   style="fill:#000000;fill-opacity:1" /><path
   d="m 34.299333,324.7 c 0.4,5.4 -0.2,11 -1.2,16 -0.8,1 -1.4,0 -2.2,-0.2 -1.2,-3.4 2.8,-7 -0.2,-10.2 l -0.6,0.8 -1.4,7.2 c -2,0 -3.4,-2.2 -4.4,-3.8 -1,-5 3.4,-8.4 5.2,-12.8 1.8,0.2 3.6,1.2 4.8,3 z"
   id="path4046"
   style="fill:#ffffff;fill-opacity:1" /><path
   d="m 105.89933,331.1 c -0.2,4.4 -3.4,7.4 -6.199997,11 -1,0 -2,-1 -3,-1.4 0,-2.8 2.8,-4.8 3.399997,-7.4 0,-1.2 0.2,-2.4 -0.199997,-3.4 l -5,8.2 c -1.4,-0.4 -1.2,-2.4 -1.4,-3.8 1.4,-4.8 5.8,-8.4 7.999997,-12.4 3,1.8 4.8,5.6 4.4,9.2 z"
   id="path4048"
   style="fill:#ffffff;fill-opacity:1" /><path
   d="m 288.09933,323.3 c -1.2,1.4 -2,5.4 -5,4.2 l -0.2,-0.2 c 1.4,-1.8 3.2,-3 5.2,-4 z"
   id="path4050"
   style="fill:#ffffff;fill-opacity:1" /><path
   d="m 21.699333,330.7 c -1.2,1.4 -3.4,2.2 -5.2,3.8 -1,-1.4 -0.6,-4.4 0.6,-5.8 l 4.6,2 z"
   id="path4052"
   style="fill:#ffffff;fill-opacity:1" /><path
   d="m 223.69933,331.7 c 0,0 2,7.8 1.8,11.4 0.2,3.4 3,6 3.4,9.2 -1,3 -4.2,2 -6.8,2.2 l -0.2,-0.2 2.4,-2.4 c -2.4,-0.8 -4.4,1.4 -6.8,2.8 h -5.4 c 0.2,-1.4 -1.2,-1 -2.2,-1 -1.8,1.8 -5.2,0.8 -7.4,0.8 -0.6,-1 -2.4,-0.8 -3.2,-0.2 -1.8,0.8 -4,0.6 -6,0.2 0.2,-0.2 0.8,-1 0.2,-1.2 -2,-1.2 -3,1 -4.4,1.4 l -5.2,-0.2 2.2,-2.2 c -2.8,-2.8 -4.4,2.2 -7,2.4 -1,-0.2 -2.8,0.2 -3.4,-0.6 l 4.2,-4 c -0.4,-0.6 -2,-1.2 -2.4,-0.2 l -6,4.8 -4.8,-0.2 c 2,-2.2 5,-4 7,-6.4 l -1.4,-0.8 -9.8,7.4 -5.2,-0.2 c 3,-3.2 7.4,-6 10.2,-9.4 -2.2,-2 -4,2 -6,2.8 l -8.2,6.4 c -1.2,0.2 -2,-1.2 -3,-1.8 3.2,-4 8,-6.4 11.8,-10.2 0,-0.8 -0.8,-1 -1.4,-1.2 -4.2,2.8 -8,6.8 -12.4,9.8 -1,-0.2 -2,-1 -2.8,-2 3.4,-3.4 8,-6.8 11.2,-10.2 -0.2,-0.8 -1.4,-1.4 -2,-0.8 l -11.2,9.2 c -1.2,-0.2 -2,-1.4 -3,-2.2 3.4,-3.8 8,-6.4 11.2,-10.2 -0.4,-1.4 -2,-1 -2.8,0 l -10.2,8.2 c -1.2,-0.2 -2,-1.4 -2.8,-2.2 2.8,-3.4 10.2,-8.8 10.2,-8.8 h 77.6 z"
   id="path4054"
   style="fill:#ffffff;fill-opacity:1" /><path
   d="m 281.29933,332.9 -26.4,21.8 -5,-0.2 c 9,-8 18.2,-15.8 27.8,-23 l 4,0.2 -0.4,1.2 z"
   id="path4056"
   style="fill:#ffffff;fill-opacity:1" /><path
   d="m 132.89933,331.9 c -1,0.8 -2,2.8 -3.4,1.8 -0.4,-0.6 -1.8,-1.2 -0.8,-2 1.2,0 3.2,-0.6 4.2,0.2 z"
   id="path4058"
   style="fill:#ffffff;fill-opacity:1" /><path
   d="m 141.29933,332.1 c -2.4,2 -5.2,4.8 -8,6 -0.8,-0.8 -2.4,-1.8 -1.2,-2.4 2.8,-2.2 5.8,-5.6 9.2,-3.6 z"
   id="path4060"
   style="fill:#ffffff;fill-opacity:1" /><path
   d="m 272.89933,331.9 c 0,0 -18,15.4 -27.2,22.8 l -4.8,-0.2 c 9,-7.8 27.2,-22.8 27.2,-22.8 l 4.8,0.2 z"
   id="path4062"
   style="fill:#ffffff;fill-opacity:1" /><path
   d="m 263.49933,332.5 -24.8,20.4 c -1.2,-0.6 -1,-2.2 -1,-3.8 l 2.4,-3 c -0.8,-0.8 -2,1.4 -2.8,0 0.2,-6.8 6.8,-11 11.4,-14.4 h 14.4 v 0.8 z"
   id="path4064"
   style="fill:#ffffff;fill-opacity:1" /><path
   d="m 24.099333,337.7 2.2,2.8 c -1.8,3.8 -5.4,6.8 -8.2,10.2 -1,0 -1.2,-1 -1.4,-1.4 0.4,-3.4 3,-6 5.2,-8.4 -1,-1 -2.2,0 -3.2,0.6 -1.2,1.2 -1.8,3 -3,4.4 -1.2,-2.8 -0.6,-6.4 1.4,-9 1.4,-1 2.8,-3 4.8,-2.4 l 2.2,3.2 z"
   id="path4066"
   style="fill:#ffffff;fill-opacity:1" /><path
   d="m 111.89933,343.5 c 0,4.2 -2.4,7.2 -4.4,10.8 -1.2,0.8 -2.4,-0.4 -3.2,-1.2 l -0.2,-0.8 c 0.8,-3.4 5,-6.2 3,-10 l -5,8.2 c -1.2,-0.6 -1.4,-2.2 -1.8,-3.4 0.8,-4.4 5.2,-7 6.8,-11 0.6,-0.2 1,-0.4 1.4,-0.2 2,2 3.4,4.6 3.4,7.6 z"
   id="path4068"
   style="fill:#ffffff;fill-opacity:1" /><path
   d="m 32.499333,343.9 c 0,0.8 0,1.2 -0.6,1.4 -1,-0.8 -1.8,-1.4 -2,-2.4 1.2,0 2,0.2 2.6,1 z"
   id="path4070"
   style="fill:#ffffff;fill-opacity:1" /><path
   d="m 31.499333,352.9 c -0.6,4.4 -4,7.4 -6.8,11.2 -1.2,0.8 -2.2,-1 -3.2,-2 -1,-2 1.2,-3.8 2,-5.4 0.8,-2 3.2,-3.4 1.8,-6 -2.2,2.4 -4,5.8 -5.8,8.4 -1,-1 -1.2,-2.8 -1,-4.2 1,-4.4 5.8,-7.4 8.4,-11.2 3.2,2 4.4,5.8 4.6,9.2 z"
   id="path4072"
   style="fill:#ffffff;fill-opacity:1" /><path
   d="m 120.09933,356.1 c -0.6,4.8 -5,7.2 -8,10.4 -1,-0.6 -2,-1.2 -2.4,-2.2 1.4,-3.4 6,-5.8 4.8,-10 -2,2.2 -3.8,5.2 -6,7 -2,-6 4.4,-10 6,-15.2 3.4,2 5.4,6 5.6,10 z"
   id="path4074"
   style="fill:#ffffff;fill-opacity:1" /><path
   d="m 94.299333,350.5 c 0.2,2 -0.8,4.2 -0.6,6.8 0,2.8 0.6,5.2 0.8,8 v 0.2 c -2.8,-3.4 -4.4,-8.8 -2.8,-13.2 0.6,-1.2 1.6,-1.8 2.6,-1.8 z"
   id="path4076"
   style="fill:#000000;fill-opacity:1" /><path
   d="m 105.89933,356.9 c -0.4,3.2 0.6,6.4 2.2,9 l 2.4,3 c -2.2,3.8 -1,8.8 0.8,12.2 -8.2,-6.2 -12.799997,-15.4 -11,-26 l 1,-1.4 4.6,3.2 z"
   id="path4078"
   style="fill:#ffffff;fill-opacity:1" /><path
   d="m 36.299333,364.1 c -0.6,5.2 -4.4,9 -6.8,13.4 -1,0.2 -1.2,-1 -1.8,-1.2 0.2,-4.2 4.2,-7 3.8,-11.4 h -0.6 c -2,2.8 -3.4,5.8 -5,8.8 -1.2,-1.2 -1.4,-3.4 -1,-5.4 1.4,-4.4 6.2,-7.4 8,-11.8 3,1.4 3.6,4.4 3.4,7.6 z"
   id="path4080"
   style="fill:#ffffff;fill-opacity:1" /><path
   d="m 165.09933,359.7 c -0.2,1 -2,0.6 -2.2,0 h 2.2 z"
   id="path4082"
   style="fill:#ffffff;fill-opacity:1" /><path
   d="m 173.09933,359.7 c -0.4,1.2 -2,2.2 -3.2,3 -1,0 -2,-0.2 -2.4,-1 0.8,-2.6 3.4,-2 5.6,-2 z"
   id="path4084"
   style="fill:#ffffff;fill-opacity:1" /><path
   d="m 176.89933,365.1 c -1.4,0 -2.8,-0.8 -4,-1.4 1,-1.4 3,-2.8 4.4,-4 h 5.4 l -5.8,5.4 z"
   id="path4086"
   style="fill:#ffffff;fill-opacity:1" /><path
   d="m 192.29933,359.7 c -2.8,2.8 -6,5.4 -9.2,7.2 l -3.2,-1 c 1.8,-2.4 4.8,-4.2 7,-6.2 h 5.4 z"
   id="path4088"
   style="fill:#ffffff;fill-opacity:1" /><path
   d="m 201.69933,360.1 -10.2,8.2 c -1.2,0 -3,-0.2 -4.2,-0.8 2.2,-3.2 6,-5.8 9,-8 h 5.4 v 0.6 z"
   id="path4090"
   style="fill:#ffffff;fill-opacity:1" /><path
   d="m 211.29933,359.7 c -3.2,3.8 -7.4,6.8 -11.4,9.4 l -4.2,-0.6 0.2,-0.8 10.2,-8.2 h 5.2 z"
   id="path4092"
   style="fill:#ffffff;fill-opacity:1" /><path
   d="m 220.29933,359.7 c -3.4,3.8 -7.8,6.8 -11.4,9.8 -1.4,-0.2 -3.2,0.2 -4.2,-0.4 3.4,-3.2 7.4,-6.4 11.4,-9.2 h 4.2 z"
   id="path4094"
   style="fill:#ffffff;fill-opacity:1" /><path
   d="m 230.29933,359.7 c -3,3.2 -6.8,5.8 -10.2,8.4 -2,0.6 -4.2,0.8 -6.2,0.6 l 0.4,-0.8 10.4,-8.2 h 5.6 z"
   id="path4096"
   style="fill:#ffffff;fill-opacity:1" /><path
   d="m 239.49933,359.7 c -2.4,2.2 -4.2,4 -6.8,6 -2.2,0.6 -4.8,1.2 -7,1 l 8.8,-7 h 5 z"
   id="path4098"
   style="fill:#ffffff;fill-opacity:1" /><path
   d="m 247.29933,359.7 c -2,1.4 -4.4,2 -7,3 0.2,-1.2 2.4,-1.8 3.4,-3 h 3.6 z"
   id="path4100"
   style="fill:#ffffff;fill-opacity:1" /><path
   d="m 123.89933,366.1 c 1,5 -1.8,9.2 -5.4,12.4 l -3.8,2.4 c -3.8,-2.4 1.8,-5 2.8,-7.4 1.2,-1 1,-2.8 1,-4.4 h -0.4 l -6,7.2 c -0.8,-1 -1.2,-2.4 -0.8,-4 1.8,-4.8 6.2,-7.4 9.4,-11.2 2,0.8 2.8,3.2 3.2,5 z"
   id="path4102"
   style="fill:#ffffff;fill-opacity:1" /><path
   d="m 66.099333,372.9 c 16.4,11 31.2,25.8 49.999997,31 6.8,2 14.4,2.8 22,3.2 v 0.2 c -1.4,1.2 -3.8,1.4 -5.8,1.2 -12.4,-0.8 -24,-4.2 -34.199997,-10.4 l -38.4,-27 c -4.4,-2.2 -9.4,-3.4 -14.4,-3.4 0.4,-1 1.8,-1.4 2.8,-1.8 6.6,0 12.4,3.4 18,7 z"
   id="path4104"
   style="fill:#ffffff;fill-opacity:1" /><path
   d="m 22.899333,370.7 0.4,2 -1.2,1 c -0.2,-1.2 -2.4,0 -3,-1.4 0.2,-2.4 2,-4 3.2,-6 2,0.6 0,2.8 0.6,4.4 z"
   id="path4106"
   style="fill:#ffffff;fill-opacity:1" /><path
   d="m 42.099333,371.9 c 3.2,5.8 -1,11.4 -2.4,16.8 -1.2,1 -2.4,-0.8 -3.8,-1.2 -0.2,-4.2 4,-7.8 1.8,-12 -1.4,3 -2.4,6.4 -3.8,10 -1,0 -2,-1 -2.2,-2 -1.4,-3 0.8,-5.8 2,-8.2 l 4.2,-7 c 2,0.4 3.4,2 4.2,3.6 z"
   id="path4108"
   style="fill:#ffffff;fill-opacity:1" /><path
   d="m 214.09933,380.1 c 2.4,-0.8 5.2,-1.4 7.8,-1.4 -10.8,8.8 -27,5.8 -40.4,4.8 -9,-1.2 -18,-3.2 -26.4,-6 -1,-1 -2.2,-2 -2.4,-3.2 19.2,5 39.8,9.6 61.4,5.8 z"
   id="path4110"
   style="fill:#ffffff;fill-opacity:1" /><path
   d="m 81.499333,397.3 c -1.2,0.8 -3,0.6 -4.2,0.8 -2.8,-4.2 -7.2,-6 -12,-6.2 -2,-4 -6,-5.8 -9.8,-7 -0.6,-5 -5.8,-7.4 -9.8,-9 l 0.4,-0.4 c 14,2.8 24,14.4 35.4,21.8 z"
   id="path4112"
   style="fill:#ffffff;fill-opacity:1" /><path
   d="m 125.49933,380.7 c 0.2,3 -1,5.2 -2.8,7.4 -1,0.2 -2,-0.6 -2.8,-1.2 1.2,-1 1.8,-2.4 1.4,-4 -2,0.2 -3.8,4.8 -5.8,1.8 2.2,-3.2 5.4,-5.2 8.2,-8.2 1.8,0.4 1.4,2.6 1.8,4.2 z"
   id="path4114"
   style="fill:#ffffff;fill-opacity:1" /><path
   d="m 159.89933,395.1 c -1.2,0.6 -2.2,-0.8 -2.8,-1.8 -2.4,-5.4 -5,-11 -6.8,-16.8 l 2.2,1.8 7.4,16.8 z"
   id="path4116"
   style="fill:#ffffff;fill-opacity:1" /><path
   d="m 52.299333,382.9 c 2,5.4 -1.4,10.4 -1.8,16 -1.2,0.2 -2.8,0.2 -3.8,-0.8 -1,-4.2 3,-8.4 -0.2,-12.2 l -0.6,0.6 -1.4,10.2 c -1,0 -2.2,-1.4 -2.4,-2.4 -2.2,-5.4 2.2,-9.4 3,-14.4 0.8,-2 2.8,-0.2 4,0 1.2,0.2 2.4,1.6 3.2,3 z"
   id="path4118"
   style="fill:#ffffff;fill-opacity:1" /><path
   d="m 213.49933,385.9 c -1,3.4 -3.4,6.4 -5.8,9.4 -11,12 -24.2,22 -38.6,27 l -3.4,0.8 c 0.6,-4 2,-8 2.4,-12.2 8,-3.8 17.8,-4.2 23.8,-12.2 0.2,-1.2 1.2,-3.2 -0.2,-4 -3.4,-1 -5.8,2 -9,2.2 -6,1.2 -13.4,2.8 -19.2,0.2 -2.8,-5.2 -5,-10.8 -7,-16.2 l 0.2,-0.4 c 17.8,4.6 37.8,7.8 56.8,5.4 z"
   id="path4120"
   style="fill:#ffffff;fill-opacity:1" /><path
   d="m 222.29933,381.9 c -2,5.2 -6.2,9.4 -9.8,14.2 -14.2,17 -33,27.2 -52,34.4 0.8,-1.4 2.2,-3.4 3.8,-4.8 15.8,-3.2 28.4,-13.2 40.6,-24.2 5.2,-5 9,-11 12.2,-17 2,-1 3.4,-2.2 5.2,-2.6 z"
   id="path4122"
   style="fill:#ffffff;fill-opacity:1" /><path
   d="m 64.099333,394.5 c 1,4.4 -0.8,9.8 0.6,14.4 -1.4,0.4 -3,-0.2 -4.2,-0.8 -1.8,-3.8 1,-9.4 -2.4,-12.8 l -0.2,0.4 v 10.8 c -1.4,0 -3.2,-2 -4,-3.4 -1.4,-5.2 0.8,-10.4 1.8,-15.4 2.2,-0.6 4.2,1 6,2.4 l 2.4,4.4 z"
   id="path4124"
   style="fill:#ffffff;fill-opacity:1" /><path
   d="m 72.099333,396.5 c 2,0.2 3,2.4 4,4 1.8,4 1,9.2 2.4,13.2 -0.8,1.2 -3,0.8 -4.2,0.2 -2,-3.4 -0.6,-9 -4.4,-11.8 0.2,3.8 1,7.4 1.8,11 -0.8,0.8 -2,-0.2 -2.4,-1 -5.2,-4.4 -1.8,-11.4 -2.4,-17.4 1.6,-0.4 3.8,0.2 5.2,1.8 z"
   id="path4126"
   style="fill:#ffffff;fill-opacity:1" /><path
   d="m 94.699333,415.5 c -1.4,0.6 -3.2,1 -4.8,0.6 -2.8,-2.8 -2.4,-7.8 -7,-9 l 0.2,1.2 4.2,8 c -2.4,0.4 -5.2,-0.2 -6.4,-2.4 -2.2,-3.8 -1.2,-9 -2.4,-13 3,-1.4 6.2,0 8.4,1.8 l 3.4,4 4.4,8.8 z"
   id="path4128"
   style="fill:#ffffff;fill-opacity:1" /><path
   d="m 108.49933,412.1 c -0.6,0.6 -0.8,1.8 -1.8,1.4 -2.8,-0.6 -4.4,-4 -7.799997,-3 v 0.4 l 5.199997,3.8 c 0,1.2 -2,1.8 -3.2,1.8 -5.799997,-1 -6.399997,-7.4 -8.799997,-11.4 l 0.2,-0.2 c 5.2,3.4 10.999997,4.4 16.199997,7.2 z"
   id="path4130"
   style="fill:#ffffff;fill-opacity:1" /><path
   d="m 165.09933,415.5 c -1,5 -2.2,10.2 -6.8,13.4 0.6,-4.2 2.8,-8.8 3.2,-13.8 -0.2,-2 2,-2.4 3.2,-3 1.2,0.6 0.6,2.4 0.4,3.4 z"
   id="path4132"
   style="fill:#ffffff;fill-opacity:1" /><path
   d="m 161.89933,17.5 c -1.2,0.2 -2,0.2 -2.4,0.6 -0.6,0.4 -0.8,0.8 -0.6,1.2 0.6,1 3.8,-1.2 5.2,1.2 0.8,1.4 0.2,2.8 -1.4,3.6 -1.2,0.6 -2,0.6 -2.8,0.8 l -0.8,-1.6 c 1.4,0.2 2,0 2.8,-0.4 0.6,-0.4 0.8,-0.8 0.6,-1.2 -0.6,-1.2 -3.8,1.2 -5.2,-1.4 -0.6,-1.2 -0.2,-2.6 1.4,-3.4 0.8,-0.4 1.6,-0.6 2.6,-0.8 l 0.6,1.4 z"
   id="path4134" /><path
   d="m 171.29933,21.5 -5.6,1 -1.4,-8 5.4,-1 0.2,1.4 -3.6,0.6 0.4,1.6 3.4,-0.6 0.2,1.4 -3.4,0.6 0.4,2 3.6,-0.6 0.4,1.6 z"
   id="path4136" /><path
   d="m 179.09933,13.5 1.6,0 -0.2,8 -2,0 0.2,-5 -2.2,2.4 -0.2,0 -2,-2.6 -0.2,5 -2,0 0.2,-8 1.6,0 2.4,3 2.8,-2.8 z"
   id="path4138" /><path
   d="m 184.89933,15.5 0.6,0 c 1,0.2 1.4,0.4 1.2,1 0,0.6 -0.4,0.8 -1.2,0.8 l -0.8,-0.2 0.2,-1.6 z m -1.8,-1.6 -1,8 2,0.2 0.4,-3.2 1.6,0.2 c 1.8,0.2 2.6,-1 2.8,-2.2 0.2,-1 -0.4,-2.4 -2.2,-2.6 l -3.6,-0.4 z"
   id="path4140" /><path
   d="m 195.09933,23.7 -5.6,-0.8 1.2,-8 5.6,0.8 -0.2,1.4 -3.6,-0.6 -0.2,1.6 3.4,0.6 -0.2,1.4 -3.4,-0.6 -0.4,2 3.8,0.6 -0.4,1.6 z"
   id="path4142" /><path
   d="m 199.49933,17.7 1,0.2 c 0.8,0.2 1,0.4 1,1 -0.2,0.6 -0.6,0.8 -1.2,0.8 l -1,-0.2 0.2,-1.8 z m -1.6,-1.8 -1.4,8 1.8,0.4 0.6,-3.2 0.6,0 c 1,0.2 1,1.8 1.6,3.6 l 2,0.4 c -0.6,-2.6 -0.8,-3.6 -1.4,-4 1,-0.2 1.4,-0.8 1.6,-1.8 0.2,-1.2 -0.6,-2.4 -2.2,-2.8 l -3.2,-0.6 z"
   id="path4144" /><path
   d="m 213.29933,19.5 -3.4,-0.4 -0.2,1.8 3.4,0.4 -0.2,1.4 -3.4,-0.4 -0.4,3.4 -2,-0.2 0.8,-8 5.2,0.6 0.2,1.4 z"
   id="path4146" /><path
   d="m 216.49933,26.1 -2,0 0,-8 2,0 0,8 z"
   id="path4148" /><path
   d="m 219.89933,19.3 1.2,-0.2 c 1.8,-0.2 2.6,1 2.8,2.2 0.2,1.2 -0.4,2.6 -2.2,2.8 l -1.2,0.2 -0.6,-5 z m -2.2,-1.2 0.8,8 3.2,-0.4 c 3,-0.4 4.2,-2.2 4,-4.4 -0.2,-2.2 -1.8,-3.8 -4.6,-3.6 l -3.4,0.4 z"
   id="path4150" /><path
   d="m 233.69933,23.9 -5.6,1 -1.6,-8 5.4,-1 0.2,1.4 -3.6,0.8 0.4,1.6 3.4,-0.6 0.2,1.4 -3.4,0.6 0.4,2 3.6,-0.8 0.6,1.6 z"
   id="path4152" /><path
   d="m 241.09933,21.9 -5.6,1.6 -2.2,-7.8 1.8,-0.6 1.8,6.4 3.8,-1 0.4,1.4 z"
   id="path4154" /><path
   d="m 244.29933,20.7 -1.8,0.6 -2.6,-7.6 1.8,-0.6 2.6,7.6 z"
   id="path4156" /><path
   d="m 248.69933,12.5 c -1.2,0 -2,0 -2.6,0.4 -0.6,0.2 -1,0.8 -0.8,1 0.6,1.2 4,-0.8 5,1.8 0.6,1.4 -0.2,2.8 -1.6,3.4 -1.2,0.6 -2,0.4 -2.8,0.4 l -0.8,-1.6 c 1.4,0.2 2,0.2 2.8,-0.2 0.6,-0.4 1,-0.8 0.8,-1.2 -0.6,-1.2 -4,0.8 -5.2,-1.8 -0.6,-1.2 0,-2.6 1.8,-3.4 0.8,-0.4 1.6,-0.4 2.6,-0.4 l 0.8,1.6 z"
   id="path4158" />
</svg>